<svg xmlns="http://www.w3.org/2000/svg" width="227" height="127" fill="none" viewBox="0 0 227 127"><path fill="#D9EBFF" d="M0 8a8 8 0 0 1 8-8h210.86a8 8 0 0 1 8 8v111a8 8 0 0 1-8 8H8a8 8 0 0 1-8-8V8Z"/><rect width="77.245" height="36.18" x="78.37" y="29.904" fill="#fff" rx="3"/><rect width="50.997" height="25.843" x="164.802" y="29.904" fill="#fff" rx="3"/><rect width="24.373" height="3.692" x="169.114" y="34.888" fill="#D9EBFF" rx="1.846"/><rect width="16.124" height="2.584" x="169.114" y="44.672" fill="#B7D9FF" rx="1.292"/><rect width="29.248" height="2.215" x="169.114" y="49.102" fill="#D9EBFF" rx="1.108"/><rect width="50.997" height="57.962" x="164.802" y="62.023" fill="#fff" rx="3"/><rect width="77.245" height="40.98" x="78.37" y="74.945" fill="#fff" rx="3"/><rect width="24.373" height="3.692" x="86.244" y="80.483" fill="#D9EBFF" rx="1.846"/><rect width="17.249" height="3.692" x="86.244" y="87.128" fill="#B7D9FF" rx="1.846"/><path fill="#5E81FD" d="M0 0h65.621v127H0z"/><circle cx="11.5" cy="25" r="3" fill="#fff"/><rect width="30" height="4.248" x="18.5" y="23" fill="#fff" rx="2.124"/><circle cx="11.5" cy="43" r="3" fill="#fff"/><rect width="30" height="4.248" x="18.5" y="41" fill="#fff" rx="2.124"/><circle cx="11.5" cy="60" r="3" fill="#fff"/><rect width="30" height="4.248" x="18.5" y="58" fill="#fff" rx="2.124"/><circle cx="11.5" cy="77" r="3" fill="#B7D9FF"/><rect width="30" height="4.248" x="18.5" y="75" fill="#B7D9FF" rx="2.124"/><rect width="35.623" height="8.122" x="78.37" y="13.66" fill="#5E81FD" rx="4.061"/><rect width="24.373" height="3.692" x="86.244" y="34.703" fill="#D9EBFF" rx="1.846"/><rect width="24.373" height="3.692" x="107.243" y="44.302" fill="#B7D9FF" rx="1.846"/><rect width="11.624" height="3.692" x="200.237" y="44.672" fill="#056DF2" rx="1.846"/><rect width="44.622" height="2.215" x="107.243" y="51.317" fill="#D9EBFF" rx="1.108"/><rect width="44.622" height="2.215" x="107.243" y="55.747" fill="#D9EBFF" rx="1.108"/><rect width="8.224" height="6.959" x="168.364" y="66.823" fill="#056DF2" rx="2"/><rect width="10.786" height="2.088" x="179.15" y="67.867" fill="#B7D9FF" rx="1.044"/><rect width="22.616" height="1.74" x="179.15" y="71.172" fill="#D9EBFF" rx=".87"/><rect width="8.224" height="6.959" x="168.364" y="78.653" fill="#056DF2" rx="2"/><rect width="10.786" height="2.088" x="179.15" y="79.697" fill="#B7D9FF" rx="1.044"/><rect width="22.616" height="1.74" x="179.15" y="83.002" fill="#D9EBFF" rx=".87"/><rect width="8.224" height="6.959" x="168.364" y="90.483" fill="#056DF2" rx="2"/><rect width="10.786" height="2.088" x="179.15" y="91.527" fill="#B7D9FF" rx="1.044"/><rect width="22.616" height="1.74" x="179.15" y="94.832" fill="#D9EBFF" rx=".87"/><rect width="8.224" height="6.959" x="168.364" y="102.313" fill="#056DF2" rx="2"/><rect width="10.786" height="2.088" x="179.15" y="103.357" fill="#B7D9FF" rx="1.044"/><rect width="22.616" height="1.74" x="179.15" y="106.662" fill="#D9EBFF" rx=".87"/><path stroke="#056DF2" stroke-linecap="round" stroke-width="2" d="m88.494 107.802 8.062-11.26 12.187 13.66 15.749-21.044 11.999 13.291 8.812-13.29"/><path stroke="#056DF2" stroke-width="2" d="M100.243 50.21c0 3.51-2.895 6.383-6.5 6.383-3.603 0-6.499-2.873-6.499-6.384 0-3.51 2.896-6.383 6.5-6.383s6.499 2.872 6.499 6.383Z"/></svg>