<svg width="455" height="201" viewBox="0 0 455 201" fill="none" xmlns="http://www.w3.org/2000/svg">
<g clip-path="url(#clip0_11545_172351)">
<g filter="url(#filter0_d_11545_172351)">
<g clip-path="url(#clip1_11545_172351)">
<rect x="12" y="13.7988" width="405" height="249.6" rx="4.8" fill="white"/>
<mask id="path-3-inside-1_11545_172351" fill="white">
<path d="M12 13.7988H47.4V263.399H12V13.7988Z"/>
</mask>
<path d="M12 13.7988H47.4V263.399H12V13.7988Z" fill="#1E293B"/>
<path d="M39.5956 35.7394C39.563 36.8396 38.6429 37.7011 37.5416 37.6649C37.2661 37.6564 36.995 37.5905 36.7439 37.4708C36.5301 37.7185 36.2684 37.9151 35.9765 38.0475C35.6845 38.1799 35.369 38.245 35.0511 38.2384C34.7513 38.2289 34.4569 38.1518 34.1878 38.0125C33.8354 39.3578 32.444 40.3336 30.8109 40.2798C29.4085 40.2335 28.2281 39.4413 27.75 38.3519C27.7479 38.3448 27.7452 38.338 27.742 38.3315C27.7387 38.3394 27.7347 38.347 27.7299 38.354C27.5799 38.6085 27.3675 38.8157 27.115 38.9538C26.8625 39.0918 26.5792 39.1555 26.2952 39.1382C25.5905 39.115 25.0076 38.6626 24.8339 38.0635C24.4156 38.4389 23.8756 38.6294 23.3269 38.5953C22.3432 38.563 21.5563 37.9414 21.5169 37.1889H21.5125C21.3318 37.1848 21.1536 37.1431 20.9883 37.0661C20.823 36.9891 20.6738 36.8784 20.5494 36.7403C20.425 36.6023 20.3278 36.4397 20.2634 36.2618C20.1991 36.084 20.1688 35.8945 20.1745 35.7043C20.1801 35.5141 20.2215 35.327 20.2963 35.1537C20.3711 34.9805 20.4777 34.8246 20.6101 34.695C20.7425 34.5654 20.8979 34.4647 21.0675 34.3987C21.237 34.3327 21.4174 34.3028 21.598 34.3106C21.6247 34.3114 21.6502 34.3134 21.6764 34.316C21.8344 33.7348 22.1722 33.2257 22.6361 32.8694C23.1 32.513 23.6636 32.3298 24.2377 32.3486C24.2817 32.3502 24.3271 32.3528 24.3717 32.3571C24.4865 31.9938 24.6689 31.6581 24.9082 31.3697C25.1475 31.0813 25.439 30.8459 25.7655 30.6772C26.0921 30.5086 26.4474 30.41 26.8105 30.3873C27.1736 30.3646 27.5374 30.4182 27.8807 30.545C28.2118 29.7887 28.7764 29.1726 29.4826 28.7972C30.1887 28.4218 30.9949 28.3091 31.7697 28.4776C32.5445 28.646 33.2422 29.0857 33.7493 29.7249C34.2564 30.3641 34.5429 31.1653 34.5622 31.9978C34.8706 31.8349 35.213 31.7563 35.5579 31.7692C36.613 31.8038 37.4529 32.6484 37.4937 33.6856C37.5489 33.6817 37.6036 33.6817 37.6591 33.6836C38.7611 33.719 39.6289 34.6402 39.5956 35.7394Z" fill="#FFD504"/>
<path d="M39.5941 35.5631C39.5913 35.5132 39.5865 35.4637 39.5794 35.4147V35.4127C39.5753 35.3818 39.57 35.3509 39.5648 35.32C39.5634 35.3123 39.562 35.3045 39.5605 35.297C39.5543 35.2661 39.5476 35.2339 39.5399 35.2028V35.2021C39.5323 35.1712 39.5236 35.1403 39.5147 35.1107C39.5123 35.1032 39.5101 35.0953 39.5078 35.0883C39.4984 35.0574 39.4884 35.0279 39.4775 34.9982L39.4764 34.9948C39.4671 34.9695 39.4571 34.9443 39.447 34.9192L39.4447 34.9138C39.4342 34.8888 39.4233 34.864 39.4119 34.8395L39.4109 34.8373C39.3397 34.6858 39.2505 34.5443 39.1454 34.4165L39.1388 34.4085C39.1233 34.3896 39.1073 34.3712 39.0911 34.353L39.0816 34.3423C39.0652 34.3244 39.0487 34.3068 39.0321 34.2896L39.0227 34.28C39.0054 34.2624 38.9876 34.245 38.9695 34.2278L38.9654 34.2239C38.8644 34.1293 38.7545 34.0457 38.6374 33.9745L38.6308 33.9703C38.609 33.9572 38.5869 33.9445 38.5645 33.932L38.5552 33.9269C38.5326 33.9145 38.5097 33.9026 38.4865 33.891L38.48 33.888C38.2441 33.772 37.9896 33.7038 37.7297 33.687C37.7463 33.7884 37.753 33.8912 37.7499 33.994C37.7238 34.8792 36.984 35.5719 36.0979 35.5427C35.8764 35.5359 35.6583 35.4829 35.4564 35.3868C35.2845 35.5861 35.074 35.7443 34.8391 35.851C34.6042 35.9576 34.3504 36.0101 34.0947 36.0049C33.8537 35.9972 33.6171 35.935 33.4008 35.8227C33.1173 36.9046 31.9982 37.6898 30.6847 37.6464C29.5568 37.6093 28.6074 36.9716 28.2226 36.096C28.2211 36.0902 28.2189 36.0846 28.2162 36.0793C28.2139 36.0858 28.2106 36.092 28.2063 36.0974C28.0858 36.3022 27.9149 36.4689 27.7118 36.58C27.5087 36.691 27.2808 36.7423 27.0523 36.7284C26.7957 36.7292 26.545 36.6465 26.3347 36.4916C26.1245 36.3366 25.9649 36.1171 25.8778 35.8629C25.5416 36.1651 25.1073 36.3185 24.6661 36.2912C23.875 36.265 23.2419 35.7657 23.2103 35.1602H23.2067C22.9149 35.1505 22.6388 35.0194 22.4389 34.7955C22.239 34.5716 22.1317 34.2734 22.1406 33.9663C22.1432 33.8866 22.1523 33.8072 22.1678 33.7291C22.1468 33.6323 22.1377 33.5331 22.1406 33.4339C22.1413 33.4123 22.1427 33.3906 22.1443 33.3691C22.0797 33.4537 22.0201 33.5423 21.9656 33.6343C21.9622 33.6399 21.959 33.6456 21.9558 33.6513C21.9357 33.686 21.9164 33.7209 21.897 33.7564C21.894 33.7625 21.8907 33.7683 21.8878 33.7742C21.8467 33.8543 21.8095 33.9366 21.7764 34.0207C21.7717 34.0324 21.7673 34.0444 21.7627 34.0563C21.7511 34.0872 21.7401 34.1181 21.7295 34.149C21.7251 34.162 21.7206 34.1748 21.7165 34.1879C21.7035 34.2277 21.6915 34.2678 21.6803 34.3082L21.6781 34.3159C21.6677 34.3148 21.6573 34.3143 21.6469 34.3136C21.6313 34.3123 21.6159 34.3108 21.5999 34.3103C21.5533 34.3088 21.5067 34.3097 21.4603 34.3131H21.4576C21.4362 34.3148 21.4149 34.3169 21.3937 34.3196L21.3849 34.3207C21.3659 34.3233 21.3468 34.3263 21.3278 34.3295L21.3167 34.3317C21.2985 34.3351 21.2804 34.3388 21.2625 34.3429L21.2507 34.3457C21.2328 34.35 21.2151 34.3547 21.1974 34.3598L21.1867 34.3627C21.1684 34.3681 21.15 34.374 21.132 34.3803L21.1245 34.3828C21.0411 34.412 20.9606 34.4495 20.8841 34.495L20.883 34.4958C20.8649 34.5066 20.8473 34.5177 20.8297 34.5293L20.8214 34.5349C20.8068 34.5451 20.7921 34.5554 20.7774 34.5658L20.7665 34.574C20.7529 34.5842 20.7394 34.5945 20.726 34.6049L20.7141 34.6146C20.7013 34.6251 20.6886 34.636 20.6761 34.6471L20.6643 34.6576C20.6519 34.6689 20.6397 34.6805 20.6275 34.6924L20.6169 34.7026C20.6043 34.7151 20.592 34.7281 20.5799 34.7411L20.5718 34.7497C20.5579 34.7652 20.5442 34.7806 20.531 34.7961L20.5288 34.7987C20.5002 34.833 20.4731 34.8687 20.4478 34.9056L20.4435 34.9121C20.4328 34.9276 20.4222 34.944 20.4121 34.9604C20.409 34.9653 20.4059 34.9706 20.403 34.9758C20.3946 34.9894 20.3866 35.003 20.3788 35.0169L20.3682 35.0362C20.3613 35.0491 20.3546 35.062 20.348 35.075C20.3443 35.0823 20.3408 35.0905 20.3372 35.097C20.3311 35.1095 20.3252 35.1222 20.3195 35.135C20.3159 35.1429 20.3126 35.1504 20.3092 35.1585C20.3038 35.1712 20.2986 35.184 20.2935 35.1968C20.2902 35.2049 20.2872 35.2123 20.2841 35.2212C20.2792 35.2342 20.2747 35.2474 20.2701 35.2605C20.2673 35.2687 20.2644 35.2769 20.2618 35.2851C20.2574 35.2988 20.2532 35.3129 20.2491 35.3268C20.2469 35.3347 20.2444 35.3422 20.2424 35.3501C20.238 35.3656 20.2339 35.3829 20.23 35.3994C20.2287 35.4051 20.2271 35.4107 20.2258 35.4164C20.2209 35.4381 20.2165 35.46 20.2127 35.4823V35.4832C20.2071 35.5149 20.2029 35.547 20.1992 35.5795C20.1982 35.5884 20.1973 35.5974 20.1964 35.6065C20.1953 35.6192 20.1942 35.632 20.1933 35.6448C20.1919 35.6645 20.1907 35.6841 20.1901 35.7039C20.1845 35.8929 20.2144 36.0813 20.2779 36.2582C20.3415 36.4351 20.4376 36.597 20.5607 36.7348C20.6838 36.8726 20.8315 36.9835 20.9953 37.0612C21.1591 37.1389 21.3359 37.1818 21.5155 37.1875H21.5199C21.5592 37.9397 22.3469 38.5613 23.3299 38.5939C23.8786 38.6281 24.4186 38.4375 24.8368 38.0621C25.0105 38.6613 25.5937 39.113 26.2981 39.1368C26.5821 39.1542 26.8654 39.0905 27.1179 38.9524C27.3704 38.8144 27.5828 38.6072 27.7327 38.3527C27.7376 38.3457 27.7417 38.3381 27.7449 38.3301C27.7481 38.3367 27.7508 38.3435 27.7531 38.3505C28.231 39.4399 29.4114 40.2324 30.8139 40.2785C32.4469 40.3323 33.8383 39.3565 34.1907 38.0111C34.4598 38.1505 34.7542 38.2275 35.054 38.2371C35.3719 38.2437 35.6874 38.1786 35.9794 38.0462C36.2714 37.9138 36.533 37.7171 36.7468 37.4694C36.9979 37.5891 37.269 37.6551 37.5445 37.6635C38.6457 37.6997 39.5659 36.8383 39.5985 35.738C39.5995 35.7079 39.5994 35.6778 39.5985 35.6479C39.5976 35.6181 39.5957 35.5918 39.5941 35.5631Z" fill="#FFAA01"/>
<g opacity="0.55">
<path opacity="0.55" d="M34.7588 32.571C35.0672 32.408 35.4097 32.3294 35.7545 32.3422C36.1043 32.35 36.4462 32.4534 36.7464 32.6424C37.0467 32.8314 37.2951 33.0994 37.4672 33.42C37.3751 32.9575 37.136 32.5418 36.7893 32.2416C36.4425 31.9414 36.0089 31.7746 35.56 31.7689C35.2624 31.7581 34.9661 31.8152 34.6914 31.9361C34.7312 32.1453 34.7537 32.3577 34.7588 32.571Z" fill="#FCE5E5"/>
</g>
<g opacity="0.55">
<path opacity="0.55" d="M37.69 34.2584C37.7453 34.2545 37.7999 34.2545 37.8554 34.2563C38.2054 34.2643 38.5474 34.3681 38.8477 34.5575C39.148 34.7469 39.3963 35.0154 39.568 35.3365C39.4763 34.8735 39.2374 34.4574 38.8906 34.1567C38.5438 33.8561 38.11 33.6889 37.6608 33.6828C37.6338 33.6819 37.6069 33.6814 37.5801 33.6817C37.6451 33.8667 37.6822 34.0613 37.69 34.2584Z" fill="#FCE5E5"/>
</g>
<g opacity="0.6">
<path opacity="0.6" d="M20.3806 36.2785C20.3862 36.0894 20.4271 35.9033 20.501 35.7309C20.575 35.5585 20.6805 35.4031 20.8115 35.2736C20.9425 35.1441 21.0965 35.043 21.2646 34.9762C21.4327 34.9093 21.6117 34.878 21.7913 34.884C21.8181 34.8849 21.8436 34.887 21.8697 34.8894C22.0278 34.3082 22.3656 33.7992 22.8295 33.4428C23.2934 33.0865 23.857 32.9032 24.431 32.922C24.4758 32.9236 24.5204 32.9262 24.5651 32.9305C24.6799 32.5672 24.8623 32.2315 25.1016 31.9431C25.3409 31.6547 25.6323 31.4194 25.9589 31.2507C26.2855 31.0821 26.6407 30.9835 27.0039 30.9608C27.367 30.9381 27.7308 30.9917 28.0741 31.1185C28.3554 30.4766 28.8061 29.9335 29.3724 29.5537C29.9388 29.174 30.5969 28.9736 31.2684 28.9765C31.9399 28.9794 32.5965 29.1854 33.1599 29.5701C33.7232 29.9547 34.1697 30.5018 34.446 31.146C34.4353 31.1038 34.4241 31.0617 34.4121 31.02C34.2059 30.3046 33.798 29.6721 33.2424 29.2064C32.6869 28.7406 32.0099 28.4636 31.3014 28.4121C30.5929 28.3606 29.8862 28.537 29.2751 28.9179C28.664 29.2989 28.1774 29.8663 27.8797 30.5451C27.5364 30.418 27.1726 30.3642 26.8093 30.3868C26.4461 30.4093 26.0908 30.5078 25.7642 30.6765C25.4375 30.8452 25.146 31.0807 24.9068 31.3693C24.6675 31.6578 24.4853 31.9937 24.3707 32.3572C24.3266 32.3528 24.2813 32.3502 24.2366 32.3487C23.6626 32.3298 23.099 32.5131 22.6351 32.8694C22.1712 33.2258 21.8334 33.7349 21.6754 34.316C21.6492 34.3134 21.6237 34.3114 21.597 34.3106C21.3495 34.3024 21.1045 34.365 20.8882 34.4918C20.6719 34.6186 20.4923 34.8047 20.3686 35.0305C20.2449 35.2562 20.1817 35.5131 20.1857 35.7737C20.1898 36.0342 20.2609 36.2888 20.3916 36.5102C20.382 36.4334 20.3784 36.3559 20.3806 36.2785Z" fill="#FCE5E5"/>
</g>
<g opacity="0.55">
<path opacity="0.55" d="M21.7012 37.7622C21.7046 37.7674 21.7078 37.7729 21.7114 37.7774C21.7114 37.7723 21.7104 37.7671 21.7101 37.7622H21.7012Z" fill="#FCE5E5"/>
</g>
<path d="M30.9355 40.4868C30.892 40.4868 30.8479 40.4861 30.8034 40.4846C29.4829 40.4412 28.3052 39.76 27.7153 38.7228C27.5345 38.9292 27.3132 39.0916 27.0666 39.1987C26.8201 39.3058 26.5543 39.355 26.2878 39.3428C25.9755 39.3381 25.6698 39.2479 25.4007 39.0812C25.1315 38.9146 24.9081 38.6771 24.7525 38.3921C24.3274 38.6832 23.8261 38.8259 23.3195 38.8001C22.3195 38.7671 21.4906 38.1575 21.3429 37.3795C20.9519 37.3237 20.5955 37.1144 20.3451 36.7934C20.0947 36.4724 19.969 36.0636 19.9932 35.6491C20.0173 35.2345 20.1896 34.845 20.4754 34.5586C20.7611 34.2723 21.1393 34.1104 21.5338 34.1054C21.7266 33.518 22.0927 33.0109 22.5787 32.658C23.0647 32.3052 23.6451 32.1251 24.2353 32.144C24.5014 31.4267 25.0122 30.8398 25.6678 30.4981C26.3234 30.1564 27.0765 30.0845 27.7798 30.2966C28.1007 29.6457 28.59 29.1036 29.191 28.7329C29.7921 28.3621 30.4805 28.1778 31.1768 28.2012C31.7496 28.2184 32.3105 28.3772 32.8142 28.6648C33.6723 29.1542 34.3134 29.9789 34.5993 30.9611C34.6683 31.201 34.715 31.4475 34.7387 31.6969C35.0037 31.5999 35.2834 31.555 35.5637 31.5646C36.0725 31.5727 36.5624 31.7689 36.9476 32.1188C37.3328 32.4687 37.5889 32.9501 37.671 33.4787C38.2428 33.4953 38.7866 33.7423 39.1903 34.1687C39.3876 34.3744 39.5426 34.6206 39.6456 34.8919C39.7487 35.1633 39.7976 35.4541 39.7893 35.7462C39.7534 36.9569 38.7416 37.9099 37.5346 37.8698C37.2795 37.8621 37.0275 37.8092 36.7891 37.7133C36.5601 37.9527 36.2874 38.1408 35.9875 38.2663C35.6877 38.3918 35.3668 38.452 35.0441 38.4435C34.7919 38.4355 34.5426 38.3837 34.3064 38.2901C33.8496 39.589 32.4818 40.4868 30.9355 40.4868ZM27.9291 38.2729C28.3945 39.3257 29.5268 40.0327 30.8162 40.0752C32.3253 40.1238 33.6645 39.2345 33.9994 37.9579C34.007 37.9289 34.0206 37.902 34.0392 37.8791C34.0579 37.8563 34.0811 37.838 34.1072 37.8257C34.1333 37.8133 34.1617 37.8072 34.1903 37.8077C34.2189 37.8082 34.247 37.8153 34.2727 37.8286C34.517 37.9553 34.7842 38.0252 35.0563 38.0338C35.3467 38.0397 35.6349 37.9799 35.9015 37.8585C36.168 37.7372 36.4068 37.557 36.6016 37.3303C36.6294 37.2991 36.6658 37.2779 36.7056 37.2696C36.7454 37.2613 36.7867 37.2663 36.8237 37.284C37.0512 37.3926 37.2971 37.4524 37.5468 37.4597C37.5671 37.4605 37.5872 37.4608 37.6073 37.4608C38.5732 37.4608 39.3718 36.6976 39.4004 35.7326L39.595 35.7389L39.4004 35.7326C39.4068 35.4961 39.3669 35.2608 39.2832 35.0412C39.1995 34.8216 39.0739 34.6225 38.914 34.4562C38.5787 34.1029 38.1271 33.8991 37.6528 33.887C37.5957 33.8851 37.5492 33.8858 37.506 33.8887C37.4801 33.8905 37.4541 33.8869 37.4295 33.878C37.405 33.8691 37.3824 33.8551 37.363 33.8368C37.3437 33.8186 37.328 33.7965 37.317 33.7717C37.3059 33.747 37.2996 33.7202 37.2985 33.6929C37.262 32.7596 36.4944 32.0043 35.5514 31.9732C35.2391 31.9621 34.9291 32.0331 34.6495 32.18C34.6202 32.1956 34.5876 32.2031 34.5548 32.2019C34.522 32.2007 34.49 32.1907 34.4619 32.173C34.4337 32.1552 34.4103 32.1303 34.3937 32.1004C34.3772 32.0706 34.3681 32.0368 34.3673 32.0023C34.3529 31.4083 34.1944 30.8281 33.9068 30.3168C33.6192 29.8055 33.2121 29.3801 32.7243 29.0812C32.2365 28.7822 31.6841 28.6196 31.1197 28.6089C30.5554 28.5981 29.9977 28.7394 29.4999 29.0195C28.8663 29.3784 28.3601 29.9435 28.057 30.6304C28.0368 30.6768 28.0009 30.7136 27.9563 30.7336C27.9116 30.7536 27.8615 30.7554 27.8158 30.7386C27.4969 30.6204 27.1588 30.5703 26.8214 30.5912C26.4839 30.6121 26.1538 30.7035 25.8502 30.8602C25.5467 31.0169 25.2759 31.2357 25.0536 31.5038C24.8313 31.7718 24.662 32.0839 24.5555 32.4216C24.5415 32.4655 24.5139 32.5031 24.4771 32.5283C24.4403 32.5536 24.3965 32.565 24.3527 32.5607C24.3147 32.557 24.2748 32.5545 24.2307 32.5531C23.6998 32.5347 23.1783 32.7038 22.7492 33.0333C22.3201 33.3629 22.0079 33.834 21.8625 34.3718C21.85 34.4178 21.8226 34.4578 21.7851 34.4847C21.7475 34.5117 21.7022 34.524 21.657 34.5196C21.6349 34.5174 21.6129 34.5157 21.5907 34.5149C21.4367 34.5099 21.2833 34.5368 21.1392 34.5941C20.995 34.6515 20.8631 34.7381 20.7507 34.8492C20.6384 34.9602 20.548 35.0934 20.4846 35.2413C20.4212 35.3891 20.3861 35.5486 20.3813 35.7107C20.3765 35.8728 20.4021 36.0344 20.4565 36.1861C20.511 36.3378 20.5933 36.4767 20.6988 36.5949C20.8043 36.7132 20.9309 36.8083 21.0713 36.8751C21.2118 36.9418 21.3633 36.9787 21.5173 36.9838H21.5207C21.5696 36.9852 21.6162 37.0058 21.6512 37.0417C21.6863 37.0775 21.7072 37.1259 21.71 37.1773C21.744 37.8286 22.4564 38.3613 23.3319 38.39C23.829 38.4208 24.3185 38.2501 24.6999 37.913C24.7241 37.8893 24.7536 37.8725 24.7856 37.8641C24.8176 37.8558 24.8512 37.8561 24.883 37.8651C24.9149 37.8741 24.9441 37.8915 24.9678 37.9156C24.9915 37.9398 25.009 37.9699 25.0187 38.0031C25.1717 38.5307 25.6986 38.913 26.3 38.9328C26.5486 38.9483 26.7966 38.8933 27.0181 38.7736C27.2397 38.6538 27.4266 38.4737 27.5596 38.252C27.5615 38.2485 27.5635 38.2449 27.5657 38.2415C27.5813 38.2078 27.6054 38.1791 27.6354 38.1588C27.6654 38.1385 27.7002 38.1272 27.7358 38.1263C27.7715 38.1253 27.8067 38.1347 27.8377 38.1534C27.8686 38.1721 27.8941 38.1994 27.9113 38.2323C27.9181 38.2454 27.9241 38.2589 27.9291 38.2729Z" fill="#2C3A47"/>
<path d="M25.7481 33.0579C25.7481 33.0545 25.7493 33.0511 25.7513 33.0483C25.7533 33.0456 25.756 33.0435 25.7592 33.0425C25.8387 33.0168 25.9208 33.0012 26.0038 32.9961C26.0897 32.9926 26.1756 33.0014 26.2591 33.0224C26.3439 33.0447 26.4257 33.0778 26.5029 33.121C26.5184 33.1298 26.534 33.1386 26.5491 33.1482C26.5689 33.0599 26.6037 32.9761 26.6519 32.9009C26.7549 32.7473 26.8983 32.6286 27.0644 32.5594C27.2197 32.4912 27.3873 32.4598 27.5554 32.4674C27.639 32.4713 27.7216 32.4876 27.8009 32.5158C27.881 32.5439 27.9549 32.5885 28.0185 32.647C28.0268 32.6552 28.032 32.6664 28.0329 32.6784C28.0338 32.6904 28.0304 32.7023 28.0233 32.7118C28.0163 32.7213 28.0061 32.7276 27.9948 32.7296C27.9835 32.7316 27.972 32.729 27.9624 32.7224H27.9612C27.8407 32.6429 27.698 32.6088 27.5567 32.626C27.4155 32.6384 27.2786 32.6834 27.1558 32.7577C27.0395 32.8237 26.9441 32.9241 26.8814 33.0465C26.8556 33.1013 26.8406 33.1611 26.8373 33.2222C26.834 33.2832 26.8425 33.3444 26.8621 33.402C26.869 33.4231 26.8717 33.4455 26.8702 33.4678C26.8739 33.4741 26.8774 33.4808 26.8811 33.4871C26.923 33.5642 26.9605 33.6439 26.9934 33.7257C27.0581 33.885 27.1076 34.0507 27.1409 34.2203C27.1416 34.2245 27.1407 34.2288 27.1384 34.2324C27.1362 34.2359 27.1327 34.2384 27.1287 34.2393C27.1254 34.2399 27.122 34.2394 27.119 34.2378C27.116 34.2362 27.1135 34.2337 27.112 34.2305C27.0406 34.0816 26.9553 33.9406 26.8574 33.8095C26.8101 33.7464 26.7594 33.6861 26.7056 33.629C26.7049 33.629 26.5425 33.4502 26.5393 33.4459C26.4792 33.3995 26.4347 33.3598 26.3822 33.3142C26.3256 33.2645 26.2639 33.2215 26.1983 33.1862C26.1306 33.1513 26.0588 33.126 25.9847 33.1111C25.9134 33.0889 25.8397 33.0763 25.7654 33.0737H25.7642C25.7621 33.0739 25.76 33.0737 25.7581 33.073C25.7561 33.0723 25.7543 33.0712 25.7527 33.0697C25.7512 33.0682 25.75 33.0664 25.7492 33.0643C25.7484 33.0623 25.748 33.0601 25.7481 33.0579Z" fill="#FFAA01"/>
<path d="M34.891 33.81C34.8914 33.8073 34.8909 33.8045 34.8896 33.8021C34.8884 33.7998 34.8865 33.7979 34.8841 33.7967C34.8271 33.7695 34.7672 33.7495 34.7057 33.7374C34.6419 33.7257 34.5769 33.7234 34.5125 33.7306C34.4472 33.7384 34.3831 33.7546 34.3216 33.7789C34.3092 33.7839 34.2967 33.7888 34.2845 33.7944C34.2781 33.7266 34.26 33.6606 34.2312 33.5997C34.1686 33.4742 34.0726 33.3707 33.9549 33.3018C33.8453 33.2349 33.7231 33.1941 33.5969 33.1824C33.5341 33.1766 33.4708 33.1802 33.409 33.193C33.3466 33.2057 33.2872 33.2313 33.2343 33.2685C33.2276 33.2738 33.223 33.2816 33.2213 33.2903C33.2197 33.299 33.2212 33.3081 33.2255 33.3157C33.2298 33.3233 33.2366 33.329 33.2447 33.3317C33.2527 33.3344 33.2614 33.3339 33.2691 33.3303H33.27C33.3673 33.283 33.477 33.2721 33.5811 33.2994C33.6853 33.323 33.7834 33.3705 33.8683 33.4385C33.9489 33.4998 34.0108 33.5846 34.0462 33.6825C34.0602 33.7261 34.0658 33.7722 34.0626 33.8181C34.0593 33.864 34.0474 33.9088 34.0274 33.9497C34.0203 33.9648 34.0162 33.9813 34.0152 33.9981C34.0118 34.0024 34.0086 34.007 34.0054 34.0114C33.9668 34.0646 33.9313 34.1202 33.8991 34.178C33.8359 34.2904 33.7835 34.4091 33.7427 34.5325C33.7419 34.5353 33.742 34.5383 33.7431 34.541C33.7442 34.5436 33.7462 34.5458 33.7487 34.5471C33.7511 34.5484 33.754 34.5487 33.7567 34.548C33.7593 34.5473 33.7617 34.5455 33.7633 34.5432C33.8304 34.4393 33.9073 34.3428 33.9928 34.2551C34.034 34.2128 34.0775 34.1731 34.123 34.1361C34.123 34.1361 34.2614 34.0194 34.2642 34.0165C34.3134 33.9882 34.3504 33.963 34.3939 33.9344C34.4408 33.9032 34.4908 33.8776 34.543 33.8579C34.5969 33.8388 34.6529 33.8274 34.7097 33.8239C34.765 33.8147 34.8212 33.8129 34.8769 33.8187H34.8779C34.8807 33.8192 34.8837 33.8186 34.8861 33.817C34.8885 33.8154 34.8903 33.8129 34.891 33.81Z" fill="#FFAA01"/>
<rect x="20.4004" y="52.7988" width="19.2" height="17.8676" rx="2.4" fill="#475467"/>
<path d="M35.9969 61.7223C35.9969 62.0973 35.6843 62.3911 35.3301 62.3911H34.6634L34.678 65.7289C34.678 65.7851 34.6738 65.8414 34.6676 65.8977V66.2331C34.6676 66.6936 34.2946 67.0665 33.8342 67.0665H33.5008C33.4779 67.0665 33.455 67.0665 33.4321 67.0644C33.4029 67.0665 33.3737 67.0665 33.3445 67.0665H32.6674H32.1674C31.7069 67.0665 31.334 66.6936 31.334 66.2331V65.7331V64.3996C31.334 64.0308 31.036 63.7329 30.6672 63.7329H29.3338C28.965 63.7329 28.6671 64.0308 28.6671 64.3996V65.7331V66.2331C28.6671 66.6936 28.2941 67.0665 27.8337 67.0665H27.3336H26.669C26.6377 67.0665 26.6065 67.0644 26.5752 67.0623C26.5502 67.0644 26.5252 67.0665 26.5002 67.0665H26.1669C25.7064 67.0665 25.3334 66.6936 25.3334 66.2331V63.8996C25.3334 63.8808 25.3334 63.86 25.3355 63.8412V62.3911H24.6667C24.2917 62.3911 24 62.0994 24 61.7223C24 61.5348 24.0625 61.3681 24.2084 61.2223L29.5505 56.5656C29.6963 56.4198 29.863 56.3989 30.0088 56.3989C30.1547 56.3989 30.3214 56.4406 30.4464 56.5448L35.7677 61.2223C35.9343 61.3681 36.0177 61.5348 35.9969 61.7223Z" fill="white"/>
<path d="M25.5 81.0166C25.5 80.6018 25.1648 80.2666 24.75 80.2666C24.3352 80.2666 24 80.6018 24 81.0166V88.8916C24 89.9275 24.8391 90.7666 25.875 90.7666H35.25C35.6648 90.7666 36 90.4314 36 90.0166C36 89.6018 35.6648 89.2666 35.25 89.2666H25.875C25.6688 89.2666 25.5 89.0979 25.5 88.8916V81.0166ZM35.0297 83.0463C35.3227 82.7533 35.3227 82.2775 35.0297 81.9846C34.7367 81.6916 34.2609 81.6916 33.968 81.9846L31.5 84.4549L30.1547 83.1096C29.8617 82.8166 29.3859 82.8166 29.093 83.1096L26.468 85.7346C26.175 86.0275 26.175 86.5033 26.468 86.7963C26.7609 87.0893 27.2367 87.0893 27.5297 86.7963L29.625 84.7033L30.9703 86.0486C31.2633 86.3416 31.7391 86.3416 32.032 86.0486L35.032 83.0486L35.0297 83.0463Z" fill="white"/>
<path d="M30 115.966C33.3141 115.966 36 113.28 36 109.966C36 106.652 33.3141 103.966 30 103.966C26.6859 103.966 24 106.652 24 109.966C24 113.28 26.6859 115.966 30 115.966ZM31.1883 111.586L27.8062 112.887C27.3516 113.062 26.9039 112.615 27.0797 112.16L28.3805 108.778C28.4578 108.579 28.6125 108.424 28.8117 108.347L32.1938 107.046C32.6484 106.87 33.0961 107.318 32.9203 107.773L31.6195 111.155C31.5445 111.354 31.3875 111.508 31.1883 111.586ZM30.75 109.966C30.75 109.551 30.4148 109.216 30 109.216C29.5852 109.216 29.25 109.551 29.25 109.966C29.25 110.381 29.5852 110.716 30 110.716C30.4148 110.716 30.75 110.381 30.75 109.966Z" fill="white"/>
<path d="M33.75 134.042C33.75 135.117 33.4008 136.111 32.8125 136.917L35.7797 139.887C36.0727 140.18 36.0727 140.656 35.7797 140.949C35.4867 141.242 35.0109 141.242 34.718 140.949L31.7508 137.979C30.9445 138.57 29.9508 138.917 28.875 138.917C26.182 138.917 24 136.734 24 134.042C24 131.349 26.182 129.167 28.875 129.167C31.568 129.167 33.75 131.349 33.75 134.042ZM29.3438 131.604C29.3438 131.346 29.1328 131.135 28.875 131.135C28.6172 131.135 28.4062 131.346 28.4062 131.604V131.932C28.2281 131.972 28.05 132.035 27.8859 132.131C27.5602 132.326 27.2789 132.666 27.2812 133.16C27.2836 133.636 27.5625 133.936 27.8602 134.114C28.118 134.269 28.4391 134.367 28.6945 134.442L28.7344 134.454C29.0297 134.543 29.2453 134.613 29.3906 134.705C29.5102 134.78 29.5266 134.831 29.5289 134.897C29.5312 135.014 29.4867 135.084 29.3906 135.143C29.2734 135.216 29.0883 135.26 28.8891 135.253C28.6289 135.244 28.3852 135.162 28.0664 135.054C28.0125 135.035 27.9563 135.017 27.8977 134.998C27.6516 134.916 27.3867 135.049 27.3047 135.293C27.2227 135.537 27.3563 135.804 27.6 135.886C27.6445 135.9 27.6937 135.917 27.743 135.935C27.9375 136.003 28.1625 136.081 28.4039 136.132V136.479C28.4039 136.737 28.6148 136.948 28.8727 136.948C29.1305 136.948 29.3414 136.737 29.3414 136.479V136.156C29.5289 136.116 29.7164 136.05 29.8852 135.945C30.2203 135.736 30.4734 135.38 30.4664 134.89C30.4594 134.414 30.1922 134.107 29.8898 133.915C29.6203 133.746 29.2828 133.643 29.0203 133.563L29.0039 133.559C28.7039 133.467 28.4906 133.402 28.3406 133.313C28.2188 133.24 28.2164 133.198 28.2164 133.156C28.2164 133.069 28.2492 133.003 28.3617 132.938C28.4883 132.863 28.6805 132.818 28.8656 132.82C29.0906 132.823 29.3391 132.872 29.5969 132.942C29.8477 133.008 30.1031 132.86 30.1711 132.609C30.2391 132.359 30.0891 132.103 29.8383 132.035C29.6859 131.995 29.5172 131.956 29.3438 131.925V131.604Z" fill="white"/>
<g clip-path="url(#clip2_11545_172351)">
<path d="M31.5 156.618H28.5L27.3891 154.952C27.2227 154.701 27.4008 154.368 27.7008 154.368H32.2992C32.5992 154.368 32.7773 154.701 32.6109 154.952L31.5 156.618ZM28.5 157.368H31.5C31.5891 157.427 31.6898 157.492 31.8047 157.565C33.1336 158.416 36 160.249 36 164.118C36 165.36 34.9922 166.368 33.75 166.368H26.25C25.0078 166.368 24 165.36 24 164.118C24 160.249 26.8664 158.416 28.1953 157.565C28.3078 157.492 28.4109 157.427 28.5 157.368ZM30.4711 159.618C30.4711 159.358 30.2602 159.147 30 159.147C29.7398 159.147 29.5289 159.358 29.5289 159.618V159.759C29.3977 159.787 29.2734 159.827 29.1562 159.878C28.8047 160.038 28.5023 160.333 28.4273 160.762C28.3852 161.001 28.4086 161.231 28.507 161.442C28.6055 161.648 28.7578 161.793 28.9125 161.899C29.1844 162.084 29.543 162.192 29.8172 162.274L29.8687 162.29C30.1945 162.388 30.4172 162.463 30.5555 162.564C30.6141 162.606 30.6352 162.639 30.6445 162.66C30.6516 162.679 30.6656 162.721 30.6492 162.817C30.6352 162.899 30.5906 162.967 30.4617 163.024C30.3188 163.085 30.0867 163.115 29.7867 163.068C29.6461 163.045 29.3953 162.96 29.1727 162.883C29.1211 162.864 29.0719 162.848 29.025 162.834C28.7789 162.752 28.5141 162.885 28.432 163.131C28.35 163.378 28.4836 163.642 28.7297 163.724C28.7578 163.734 28.793 163.746 28.8328 163.76C29.018 163.823 29.3086 163.921 29.5312 163.973V164.118C29.5312 164.378 29.7422 164.589 30.0023 164.589C30.2625 164.589 30.4734 164.378 30.4734 164.118V163.989C30.6 163.966 30.7195 163.931 30.8344 163.881C31.2023 163.724 31.5 163.42 31.575 162.974C31.6172 162.731 31.5984 162.499 31.5047 162.285C31.4133 162.074 31.2656 161.92 31.1086 161.805C30.8227 161.599 30.4453 161.484 30.1617 161.397L30.143 161.392C29.8102 161.292 29.5852 161.221 29.4422 161.125C29.3812 161.083 29.3625 161.055 29.3578 161.043C29.3531 161.036 29.3414 161.006 29.3555 160.926C29.3625 160.881 29.4 160.804 29.5477 160.736C29.6977 160.668 29.932 160.631 30.218 160.675C30.3187 160.692 30.6375 160.753 30.7266 160.776C30.9773 160.842 31.2328 160.694 31.3008 160.443C31.3688 160.192 31.2187 159.937 30.968 159.869C30.8648 159.841 30.6305 159.794 30.4758 159.766V159.618H30.4711Z" fill="white"/>
</g>
<g clip-path="url(#clip3_11545_172351)">
<path d="M35.25 180.318C35.25 180.016 35.0672 179.742 34.7859 179.624C34.5047 179.507 34.1836 179.573 33.968 179.786L32.9461 180.81C31.8211 181.935 30.2953 182.568 28.7039 182.568H28.5H27.75H25.5C24.6727 182.568 24 183.241 24 184.068V186.318C24 187.146 24.6727 187.818 25.5 187.818V190.818C25.5 191.233 25.8352 191.568 26.25 191.568H27.75C28.1648 191.568 28.5 191.233 28.5 190.818V187.818H28.7039C30.2953 187.818 31.8211 188.451 32.9461 189.576L33.968 190.598C34.1836 190.814 34.5047 190.877 34.7859 190.76C35.0672 190.642 35.25 190.371 35.25 190.066V186.609C35.6859 186.403 36 185.847 36 185.193C36 184.539 35.6859 183.984 35.25 183.778V180.318ZM33.75 182.116V185.193V188.271C32.3719 187.017 30.5742 186.318 28.7039 186.318H28.5V184.068H28.7039C30.5742 184.068 32.3719 183.37 33.75 182.116Z" fill="white"/>
</g>
<path d="M46.8 13.7988V263.399H48V13.7988H46.8Z" fill="#BCB9B9" mask="url(#path-3-inside-1_11545_172351)"/>
<path d="M72.7554 40.554C71.4508 40.554 70.3708 40.1349 69.5154 39.2968C68.6687 38.4501 68.2453 37.3788 68.2453 36.0828C68.2453 34.7868 68.6687 33.7197 69.5154 32.8816C70.3708 32.0349 71.4508 31.6116 72.7554 31.6116C74.0687 31.6116 75.1487 32.0306 75.9954 32.8687C76.8508 33.7068 77.2784 34.7781 77.2784 36.0828C77.2784 37.3874 76.8508 38.4588 75.9954 39.2968C75.1487 40.1349 74.0687 40.554 72.7554 40.554ZM70.8503 38.1175C71.3341 38.6532 71.9692 38.921 72.7554 38.921C73.5416 38.921 74.1767 38.6532 74.6605 38.1175C75.1444 37.5818 75.3863 36.9036 75.3863 36.0828C75.3863 35.262 75.1444 34.5837 74.6605 34.048C74.1767 33.5124 73.5416 33.2445 72.7554 33.2445C71.9692 33.2445 71.3341 33.5124 70.8503 34.048C70.3751 34.5837 70.1375 35.262 70.1375 36.0828C70.1375 36.9036 70.3751 37.5818 70.8503 38.1175ZM80.1769 40.3984H78.531V34.1388H80.1769V34.9941C80.4102 34.7004 80.7083 34.4584 81.0712 34.2684C81.4341 34.0783 81.8013 33.9832 82.1728 33.9832V35.5903C82.0605 35.5644 81.9093 35.5514 81.7192 35.5514C81.4427 35.5514 81.1489 35.6205 80.8379 35.7588C80.5269 35.897 80.3065 36.0655 80.1769 36.2642V40.3984ZM85.7672 42.9386C84.6872 42.9386 83.7887 42.6276 83.0716 42.0055L83.8103 40.8132C84.2768 41.3316 84.9292 41.5908 85.7672 41.5908C86.2338 41.5908 86.6356 41.4655 86.9725 41.2149C87.3181 40.973 87.4909 40.5712 87.4909 40.0096V39.3746C86.9725 40.0312 86.3288 40.3596 85.5599 40.3596C84.7477 40.3596 84.0824 40.0831 83.564 39.5301C83.0543 38.9685 82.7994 38.1823 82.7994 37.1714C82.7994 36.1692 83.0543 35.3872 83.564 34.8256C84.0824 34.264 84.7477 33.9832 85.5599 33.9832C86.3375 33.9832 86.9812 34.3029 87.4909 34.9423V34.1388H89.1498V39.9708C89.1498 40.541 89.0461 41.0292 88.8388 41.4352C88.64 41.8413 88.3679 42.148 88.0223 42.3554C87.6767 42.5628 87.3181 42.7096 86.9466 42.796C86.5837 42.8911 86.1906 42.9386 85.7672 42.9386ZM86.0783 38.8951C86.3461 38.8951 86.614 38.826 86.8818 38.6877C87.1496 38.5495 87.3527 38.381 87.4909 38.1823V36.1605C87.3527 35.9532 87.1496 35.7847 86.8818 35.6551C86.6226 35.5168 86.3548 35.4477 86.0783 35.4477C85.6031 35.4477 85.2186 35.6032 84.9248 35.9143C84.6397 36.2253 84.4972 36.6444 84.4972 37.1714C84.4972 37.6984 84.6397 38.1175 84.9248 38.4285C85.2186 38.7396 85.6031 38.8951 86.0783 38.8951ZM96.1866 40.3984H94.5407V39.7504C94.0914 40.2861 93.4304 40.554 92.5578 40.554C91.9962 40.554 91.4907 40.3725 91.0415 40.0096C90.6008 39.6381 90.3805 39.1284 90.3805 38.4804C90.3805 37.8064 90.5965 37.301 91.0285 36.964C91.4691 36.6271 91.9789 36.4586 92.5578 36.4586C93.4477 36.4586 94.1087 36.7135 94.5407 37.2232V36.3808C94.5407 36.0612 94.4154 35.8063 94.1648 35.6162C93.9143 35.4261 93.5816 35.3311 93.1669 35.3311C92.4843 35.3311 91.8752 35.5773 91.3395 36.0698L90.7175 34.9682C91.4605 34.3116 92.372 33.9832 93.452 33.9832C94.2555 33.9832 94.9122 34.169 95.4219 34.5405C95.9317 34.912 96.1866 35.5168 96.1866 36.3549V40.3984ZM93.2187 39.4394C93.8322 39.4394 94.2728 39.258 94.5407 38.8951V38.1175C94.2728 37.7546 93.8322 37.5732 93.2187 37.5732C92.8818 37.5732 92.601 37.6596 92.3763 37.8324C92.1517 37.9965 92.0394 38.2255 92.0394 38.5192C92.0394 38.8044 92.1517 39.029 92.3763 39.1932C92.601 39.3573 92.8818 39.4394 93.2187 39.4394ZM103.69 40.3984H102.044V36.6141C102.044 35.8365 101.66 35.4477 100.891 35.4477C100.294 35.4477 99.8193 35.694 99.4651 36.1864V40.3984H97.8191V34.1388H99.4651V34.9552C100.009 34.3072 100.739 33.9832 101.655 33.9832C102.329 33.9832 102.835 34.1604 103.172 34.5146C103.517 34.8688 103.69 35.357 103.69 35.9791V40.3984ZM106.141 33.4648C105.873 33.4648 105.64 33.3698 105.441 33.1797C105.251 32.981 105.156 32.7477 105.156 32.4799C105.156 32.212 105.251 31.9831 105.441 31.793C105.64 31.6029 105.873 31.5079 106.141 31.5079C106.417 31.5079 106.651 31.6029 106.841 31.793C107.031 31.9831 107.126 32.212 107.126 32.4799C107.126 32.7477 107.031 32.981 106.841 33.1797C106.651 33.3698 106.417 33.4648 106.141 33.4648ZM106.97 40.3984H105.324V34.1388H106.97V40.3984ZM113.436 40.3984H108.33V39.1672L111.155 35.5773H108.33V34.1388H113.385V35.3311L110.52 38.9599H113.436V40.3984ZM120.208 40.3984H118.562V39.7504C118.113 40.2861 117.452 40.554 116.579 40.554C116.018 40.554 115.512 40.3725 115.063 40.0096C114.622 39.6381 114.402 39.1284 114.402 38.4804C114.402 37.8064 114.618 37.301 115.05 36.964C115.491 36.6271 116 36.4586 116.579 36.4586C117.469 36.4586 118.13 36.7135 118.562 37.2232V36.3808C118.562 36.0612 118.437 35.8063 118.186 35.6162C117.936 35.4261 117.603 35.3311 117.188 35.3311C116.506 35.3311 115.897 35.5773 115.361 36.0698L114.739 34.9682C115.482 34.3116 116.394 33.9832 117.474 33.9832C118.277 33.9832 118.934 34.169 119.444 34.5405C119.953 34.912 120.208 35.5168 120.208 36.3549V40.3984ZM117.24 39.4394C117.854 39.4394 118.294 39.258 118.562 38.8951V38.1175C118.294 37.7546 117.854 37.5732 117.24 37.5732C116.903 37.5732 116.623 37.6596 116.398 37.8324C116.173 37.9965 116.061 38.2255 116.061 38.5192C116.061 38.8044 116.173 39.029 116.398 39.1932C116.623 39.3573 116.903 39.4394 117.24 39.4394ZM123.94 40.554C123.361 40.554 122.921 40.4071 122.618 40.1133C122.316 39.8196 122.165 39.3962 122.165 38.8432V35.5773H121.128V34.1388H122.165V32.428H123.824V34.1388H125.094V35.5773H123.824V38.4026C123.824 38.6013 123.875 38.7655 123.979 38.8951C124.083 39.0247 124.221 39.0895 124.394 39.0895C124.653 39.0895 124.843 39.029 124.964 38.908L125.314 40.1522C125.012 40.42 124.554 40.554 123.94 40.554ZM127.036 33.4648C126.768 33.4648 126.535 33.3698 126.336 33.1797C126.146 32.981 126.051 32.7477 126.051 32.4799C126.051 32.212 126.146 31.9831 126.336 31.793C126.535 31.6029 126.768 31.5079 127.036 31.5079C127.313 31.5079 127.546 31.6029 127.736 31.793C127.926 31.9831 128.021 32.212 128.021 32.4799C128.021 32.7477 127.926 32.981 127.736 33.1797C127.546 33.3698 127.313 33.4648 127.036 33.4648ZM127.866 40.3984H126.22V34.1388H127.866V40.3984ZM134.811 39.6079C134.207 40.2386 133.403 40.554 132.401 40.554C131.399 40.554 130.595 40.2386 129.99 39.6079C129.394 38.9685 129.096 38.1866 129.096 37.2621C129.096 36.3376 129.394 35.56 129.99 34.9293C130.595 34.2986 131.399 33.9832 132.401 33.9832C133.403 33.9832 134.207 34.2986 134.811 34.9293C135.416 35.56 135.719 36.3376 135.719 37.2621C135.719 38.1866 135.416 38.9685 134.811 39.6079ZM131.234 38.5711C131.519 38.9167 131.908 39.0895 132.401 39.0895C132.893 39.0895 133.282 38.9167 133.567 38.5711C133.861 38.2168 134.008 37.7805 134.008 37.2621C134.008 36.7524 133.861 36.3247 133.567 35.9791C133.282 35.6248 132.893 35.4477 132.401 35.4477C131.908 35.4477 131.519 35.6248 131.234 35.9791C130.949 36.3247 130.807 36.7524 130.807 37.2621C130.807 37.7805 130.949 38.2168 131.234 38.5711ZM142.81 40.3984H141.165V36.6141C141.165 35.8365 140.78 35.4477 140.011 35.4477C139.415 35.4477 138.94 35.694 138.586 36.1864V40.3984H136.94V34.1388H138.586V34.9552C139.13 34.3072 139.86 33.9832 140.776 33.9832C141.45 33.9832 141.955 34.1604 142.292 34.5146C142.638 34.8688 142.81 35.357 142.81 35.9791V40.3984ZM152.53 40.3984H150.223L146.879 31.7541H148.979L151.377 38.4026L153.761 31.7541H155.861L152.53 40.3984ZM157.437 33.4648C157.169 33.4648 156.935 33.3698 156.737 33.1797C156.547 32.981 156.452 32.7477 156.452 32.4799C156.452 32.212 156.547 31.9831 156.737 31.793C156.935 31.6029 157.169 31.5079 157.437 31.5079C157.713 31.5079 157.946 31.6029 158.136 31.793C158.326 31.9831 158.422 32.212 158.422 32.4799C158.422 32.7477 158.326 32.981 158.136 33.1797C157.946 33.3698 157.713 33.4648 157.437 33.4648ZM158.266 40.3984H156.62V34.1388H158.266V40.3984ZM162.84 40.554C161.872 40.554 161.073 40.2516 160.442 39.6468C159.812 39.042 159.496 38.2471 159.496 37.2621C159.496 36.3376 159.799 35.56 160.403 34.9293C161.017 34.2986 161.795 33.9832 162.736 33.9832C163.669 33.9832 164.425 34.3029 165.004 34.9423C165.583 35.573 165.873 36.4024 165.873 37.4306V37.7935H161.22C161.272 38.2082 161.458 38.5538 161.777 38.8303C162.097 39.1068 162.512 39.245 163.021 39.245C163.298 39.245 163.596 39.1888 163.916 39.0765C164.244 38.9642 164.503 38.813 164.693 38.6229L165.419 39.6856C164.788 40.2645 163.929 40.554 162.84 40.554ZM164.279 36.6789C164.253 36.3247 164.11 36.005 163.851 35.7199C163.6 35.4348 163.229 35.2922 162.736 35.2922C162.27 35.2922 161.907 35.4348 161.648 35.7199C161.388 35.9964 161.237 36.316 161.194 36.6789H164.279ZM174.306 40.3984H172.557L171.235 36.1346L169.913 40.3984H168.15L166.245 34.1388H167.956L169.122 38.3508L170.496 34.1388H171.96L173.334 38.3508L174.501 34.1388H176.211L174.306 40.3984Z" fill="#1A1A1A"/>
<rect x="68.3828" y="51.6064" width="204" height="9.6" rx="4.8" fill="#E1E8F1"/>
<g filter="url(#filter1_d_11545_172351)">
<rect x="312" y="46.7988" width="100.8" height="111.888" rx="3.6" fill="white"/>
<rect x="319.199" y="55.1987" width="45.6" height="7.2" rx="3.6" fill="#DEDEDE"/>
<g clip-path="url(#clip4_11545_172351)">
<path d="M399.309 56.5467C399.309 56.2978 399.51 56.0967 399.759 56.0967H405.159C405.407 56.0967 405.609 56.2978 405.609 56.5467C405.609 56.7956 405.407 56.9967 405.159 56.9967H399.759C399.51 56.9967 399.309 56.7956 399.309 56.5467ZM399.309 58.7967C399.309 58.5478 399.51 58.3467 399.759 58.3467H405.159C405.407 58.3467 405.609 58.5478 405.609 58.7967C405.609 59.0456 405.407 59.2467 405.159 59.2467H399.759C399.51 59.2467 399.309 59.0456 399.309 58.7967ZM405.609 61.0467C405.609 61.2956 405.407 61.4967 405.159 61.4967H399.759C399.51 61.4967 399.309 61.2956 399.309 61.0467C399.309 60.7978 399.51 60.5967 399.759 60.5967H405.159C405.407 60.5967 405.609 60.7978 405.609 61.0467Z" fill="#747474"/>
</g>
<rect x="323.086" y="71.998" width="78.624" height="78.288" fill="white"/>
<g clip-path="url(#clip5_11545_172351)">
<path fill-rule="evenodd" clip-rule="evenodd" d="M362.695 71.686C376.67 71.686 389.584 79.131 396.572 91.2165C403.56 103.302 403.56 118.192 396.572 130.277C393.406 135.754 388.954 140.38 383.601 143.761L377.331 133.857C385.598 128.637 390.448 119.407 390.055 109.645C389.662 99.8841 384.082 91.0758 375.42 86.537C371.495 84.4804 367.129 83.4043 362.695 83.4043V71.686Z" fill="#56E6DD"/>
<path fill-rule="evenodd" clip-rule="evenodd" d="M383.6 143.762C378.247 147.143 372.153 149.172 365.841 149.681L364.898 138.002C369.317 137.647 373.582 136.223 377.33 133.858L383.6 143.762Z" fill="#FF7861"/>
<path fill-rule="evenodd" clip-rule="evenodd" d="M365.841 149.681C351.912 150.804 338.44 144.419 330.502 132.935C326.297 126.853 323.907 119.703 323.609 112.319L335.335 111.848C335.728 121.609 341.308 130.418 349.97 134.957C354.558 137.361 359.735 138.417 364.899 138.001L365.841 149.681Z" fill="#953AF5"/>
<path fill-rule="evenodd" clip-rule="evenodd" d="M323.61 112.319C323.44 108.118 323.952 103.919 325.124 99.8804L336.395 103.14C335.576 105.966 335.216 108.907 335.335 111.849L323.61 112.319Z" fill="#60C0F3"/>
<path fill-rule="evenodd" clip-rule="evenodd" d="M325.125 99.8802C329.013 86.4764 339.766 76.1605 353.336 72.8208C356.399 72.0669 359.542 71.686 362.696 71.686V83.4043C352.913 83.4043 343.875 88.615 338.984 97.0756C337.879 98.9857 337.011 101.021 336.396 103.14L325.125 99.8802Z" fill="#C95B79"/>
<path d="M369.785 72.293C359.614 70.3982 349.113 72.6526 340.591 78.5601L347.192 88.2287C353.169 84.0852 360.534 82.5041 367.668 83.8331L369.785 72.293Z" fill="#FEC645"/>
<path d="M369.901 72.3148C364.5 71.2916 358.946 71.4302 353.602 72.7214L356.317 84.1335C360.065 83.2279 363.961 83.1307 367.749 83.8483L369.901 72.3148Z" fill="#FEBB88"/>
<path d="M369.862 72.3074C368.176 71.9898 366.471 71.7846 364.758 71.6932L364.142 83.4123C365.344 83.4765 366.539 83.6204 367.722 83.8431L369.862 72.3074Z" fill="#60C0F3"/>
<path d="M351.24 115.035V114.279C350.423 114.207 349.762 113.915 349.258 113.406L349.905 112.499C350.274 112.891 350.719 113.131 351.24 113.221V111.894C351.033 111.843 350.857 111.796 350.711 111.751C350.571 111.701 350.411 111.631 350.232 111.541C350.059 111.446 349.919 111.345 349.812 111.239C349.706 111.127 349.616 110.984 349.543 110.81C349.471 110.631 349.434 110.432 349.434 110.214C349.434 109.777 349.597 109.402 349.921 109.088C350.246 108.769 350.686 108.581 351.24 108.525V107.744H352.038V108.542C352.71 108.615 353.279 108.864 353.743 109.29L353.08 110.163C352.789 109.9 352.441 109.718 352.038 109.617V110.802C352.245 110.852 352.422 110.903 352.567 110.953C352.713 111.003 352.873 111.076 353.046 111.171C353.225 111.261 353.368 111.362 353.475 111.474C353.587 111.586 353.679 111.731 353.752 111.911C353.83 112.084 353.869 112.28 353.869 112.499C353.869 112.98 353.713 113.381 353.399 113.7C353.085 114.019 352.632 114.209 352.038 114.271V115.035H351.24ZM352.66 112.633C352.66 112.409 352.453 112.23 352.038 112.095V113.221C352.234 113.182 352.385 113.109 352.492 113.003C352.604 112.891 352.66 112.767 352.66 112.633ZM350.652 110.113C350.652 110.32 350.848 110.48 351.24 110.592V109.567C351.055 109.589 350.91 109.651 350.803 109.752C350.703 109.847 350.652 109.967 350.652 110.113ZM358.777 114.195H354.56V113.263C355.759 112.373 356.551 111.74 356.938 111.365C357.33 110.984 357.526 110.628 357.526 110.298C357.526 110.068 357.436 109.889 357.257 109.76C357.078 109.631 356.865 109.567 356.618 109.567C356.03 109.567 355.529 109.783 355.115 110.214L354.434 109.424C354.698 109.122 355.02 108.895 355.4 108.744C355.787 108.587 356.184 108.509 356.593 108.509C357.209 108.509 357.719 108.671 358.122 108.996C358.531 109.321 358.735 109.755 358.735 110.298C358.735 110.757 358.553 111.208 358.189 111.65C357.831 112.087 357.265 112.585 356.492 113.145H358.777V114.195ZM363.285 114.195H362.092V113.036H359.412V112.095L361.638 108.593H363.285V111.986H364.007V113.036H363.285V114.195ZM362.092 111.986V109.651L360.58 111.986H362.092ZM365.768 114.086C365.634 114.221 365.474 114.288 365.29 114.288C365.105 114.288 364.945 114.221 364.811 114.086C364.676 113.952 364.609 113.792 364.609 113.607C364.609 113.423 364.676 113.263 364.811 113.129C364.945 112.994 365.105 112.927 365.29 112.927C365.474 112.927 365.634 112.994 365.768 113.129C365.903 113.263 365.97 113.423 365.97 113.607C365.97 113.792 365.903 113.952 365.768 114.086ZM368.741 114.296C368.248 114.296 367.811 114.215 367.43 114.053C367.05 113.885 366.75 113.666 366.532 113.397L367.153 112.599C367.344 112.795 367.579 112.952 367.859 113.07C368.139 113.182 368.419 113.238 368.699 113.238C369.035 113.238 369.295 113.173 369.48 113.045C369.665 112.91 369.757 112.737 369.757 112.524C369.757 112.3 369.668 112.137 369.488 112.037C369.309 111.93 369.024 111.877 368.632 111.877C368.279 111.877 368.046 111.883 367.934 111.894V110.819C368.002 110.824 368.234 110.827 368.632 110.827C369.32 110.827 369.665 110.628 369.665 110.231C369.665 110.018 369.567 109.855 369.371 109.743C369.18 109.626 368.931 109.567 368.623 109.567C368.08 109.567 367.607 109.76 367.204 110.147L366.607 109.399C367.134 108.805 367.848 108.509 368.749 108.509C369.404 108.509 369.92 108.646 370.295 108.92C370.676 109.195 370.866 109.564 370.866 110.029C370.866 110.365 370.746 110.648 370.505 110.877C370.264 111.101 369.976 111.244 369.64 111.306C369.97 111.339 370.27 111.477 370.538 111.717C370.813 111.953 370.95 112.263 370.95 112.65C370.95 113.137 370.748 113.535 370.345 113.843C369.942 114.145 369.407 114.296 368.741 114.296ZM378.794 114.195H377.324L375.627 111.953L375.19 112.473V114.195H373.997V108.593H375.19V111.096L377.173 108.593H378.643L376.417 111.222L378.794 114.195Z" fill="#505D6F"/>
</g>
<rect x="312.45" y="47.2488" width="99.9" height="110.988" rx="3.15" stroke="#A2A3A4" stroke-width="0.9"/>
</g>
</g>
<rect x="12.3" y="14.0988" width="404.4" height="249" rx="4.5" stroke="#A2A3A4" stroke-width="0.6"/>
</g>
<g opacity="0.3" filter="url(#filter2_d_11545_172351)">
<rect x="55.8047" y="201" width="194.4" height="100.467" rx="3.6" fill="white"/>
<rect x="56.2547" y="201.45" width="193.5" height="99.5674" rx="3.15" stroke="#A2A3A4" stroke-width="0.9"/>
</g>
<g filter="url(#filter3_d_11545_172351)">
<rect x="54.5977" y="67.7988" width="263.4" height="127.8" rx="3.6" fill="white"/>
<path d="M63.1289 83.2851C62.5865 83.2851 62.1569 83.1291 61.8401 82.8171L62.2865 82.0323C62.5265 82.2627 62.7809 82.3779 63.0497 82.3779C63.2753 82.3779 63.4553 82.3083 63.5897 82.1691C63.7289 82.0299 63.7985 81.8427 63.7985 81.6075V78.3963H64.8209V81.6219C64.8209 82.1691 64.6673 82.5843 64.3601 82.8675C64.0529 83.1459 63.6425 83.2851 63.1289 83.2851ZM68.7544 83.1987H67.84V82.8387C67.5904 83.1363 67.2232 83.2851 66.7384 83.2851C66.4264 83.2851 66.1456 83.1843 65.896 82.9827C65.6512 82.7763 65.5288 82.4931 65.5288 82.1331C65.5288 81.7587 65.6488 81.4779 65.8888 81.2907C66.1336 81.1035 66.4168 81.0099 66.7384 81.0099C67.2328 81.0099 67.6 81.1515 67.84 81.4347V80.9667C67.84 80.7891 67.7704 80.6475 67.6312 80.5419C67.492 80.4363 67.3072 80.3835 67.0768 80.3835C66.6976 80.3835 66.3592 80.5203 66.0616 80.7939L65.716 80.1819C66.1288 79.8171 66.6352 79.6347 67.2352 79.6347C67.6816 79.6347 68.0464 79.7379 68.3296 79.9443C68.6128 80.1507 68.7544 80.4867 68.7544 80.9523V83.1987ZM67.1056 82.6659C67.4464 82.6659 67.6912 82.5651 67.84 82.3635V81.9315C67.6912 81.7299 67.4464 81.6291 67.1056 81.6291C66.9184 81.6291 66.7624 81.6771 66.6376 81.7731C66.5128 81.8643 66.4504 81.9915 66.4504 82.1547C66.4504 82.3131 66.5128 82.4379 66.6376 82.5291C66.7624 82.6203 66.9184 82.6659 67.1056 82.6659ZM72.923 83.1987H72.0086V81.0963C72.0086 80.6643 71.795 80.4483 71.3678 80.4483C71.0366 80.4483 70.7726 80.5851 70.5758 80.8587V83.1987H69.6614V79.7211H70.5758V80.1747C70.8782 79.8147 71.2838 79.6347 71.7926 79.6347C72.167 79.6347 72.4478 79.7331 72.635 79.9299C72.827 80.1267 72.923 80.3979 72.923 80.7435V83.1987ZM77.0925 83.1987H76.1781V82.7595C75.8661 83.1099 75.4581 83.2851 74.9541 83.2851C74.5797 83.2851 74.2989 83.1891 74.1117 82.9971C73.9245 82.8051 73.8309 82.5363 73.8309 82.1907V79.7211H74.7453V81.8307C74.7453 82.2579 74.9589 82.4715 75.3861 82.4715C75.7077 82.4715 75.9717 82.3395 76.1781 82.0755V79.7211H77.0925V83.1987ZM81.0029 83.1987H80.0885V82.8387C79.8389 83.1363 79.4717 83.2851 78.9869 83.2851C78.6749 83.2851 78.3941 83.1843 78.1445 82.9827C77.8997 82.7763 77.7773 82.4931 77.7773 82.1331C77.7773 81.7587 77.8973 81.4779 78.1373 81.2907C78.3821 81.1035 78.6653 81.0099 78.9869 81.0099C79.4813 81.0099 79.8485 81.1515 80.0885 81.4347V80.9667C80.0885 80.7891 80.0189 80.6475 79.8797 80.5419C79.7405 80.4363 79.5557 80.3835 79.3253 80.3835C78.9461 80.3835 78.6077 80.5203 78.3101 80.7939L77.9645 80.1819C78.3773 79.8171 78.8837 79.6347 79.4837 79.6347C79.9301 79.6347 80.2949 79.7379 80.5781 79.9443C80.8613 80.1507 81.0029 80.4867 81.0029 80.9523V83.1987ZM79.3541 82.6659C79.6949 82.6659 79.9397 82.5651 80.0885 82.3635V81.9315C79.9397 81.7299 79.6949 81.6291 79.3541 81.6291C79.1669 81.6291 79.0109 81.6771 78.8861 81.7731C78.7613 81.8643 78.6989 81.9915 78.6989 82.1547C78.6989 82.3131 78.7613 82.4379 78.8861 82.5291C79.0109 82.6203 79.1669 82.6659 79.3541 82.6659ZM82.8243 83.1987H81.9099V79.7211H82.8243V80.1963C82.9539 80.0331 83.1195 79.8987 83.3211 79.7931C83.5227 79.6875 83.7267 79.6347 83.9331 79.6347V80.5275C83.8707 80.5131 83.7867 80.5059 83.6811 80.5059C83.5275 80.5059 83.3643 80.5443 83.1915 80.6211C83.0187 80.6979 82.8963 80.7915 82.8243 80.9019V83.1987ZM84.382 84.5595L84.5188 83.7387C84.6052 83.7771 84.7012 83.7963 84.8068 83.7963C85.0516 83.7963 85.2124 83.7123 85.2892 83.5443L85.4188 83.2491L84.0076 79.7211H84.9868L85.894 82.1403L86.8012 79.7211H87.7876L86.1532 83.7675C86.0332 84.0747 85.8652 84.2883 85.6492 84.4083C85.4332 84.5331 85.162 84.6003 84.8356 84.6099C84.6676 84.6099 84.5164 84.5931 84.382 84.5595ZM91.766 83.2851C90.9116 83.2851 90.2348 83.0307 89.7356 82.5219L90.29 81.7443C90.7028 82.1763 91.2116 82.3923 91.8164 82.3923C92.0804 82.3923 92.2844 82.3419 92.4284 82.2411C92.5772 82.1355 92.6516 82.0083 92.6516 81.8595C92.6516 81.7299 92.582 81.6219 92.4428 81.5355C92.3084 81.4491 92.138 81.3867 91.9316 81.3483C91.73 81.3099 91.5092 81.2547 91.2692 81.1827C91.0292 81.1107 90.806 81.0291 90.5996 80.9379C90.398 80.8467 90.2276 80.7027 90.0884 80.5059C89.954 80.3091 89.8868 80.0691 89.8868 79.7859C89.8868 79.3731 90.0524 79.0275 90.3836 78.7491C90.7148 78.4659 91.1564 78.3243 91.7084 78.3243C92.4716 78.3243 93.0956 78.5475 93.5804 78.9939L93.0116 79.7427C92.6324 79.3923 92.1668 79.2171 91.6148 79.2171C91.3988 79.2171 91.2308 79.2603 91.1108 79.3467C90.9908 79.4331 90.9308 79.5507 90.9308 79.6995C90.9308 79.8147 90.998 79.9131 91.1324 79.9947C91.2716 80.0715 91.442 80.1291 91.6436 80.1675C91.85 80.2059 92.0708 80.2635 92.306 80.3403C92.546 80.4123 92.7668 80.4963 92.9684 80.5923C93.1748 80.6835 93.3452 80.8299 93.4796 81.0315C93.6188 81.2283 93.6884 81.4659 93.6884 81.7443C93.6884 82.2051 93.5228 82.5771 93.1916 82.8603C92.8652 83.1435 92.39 83.2851 91.766 83.2851ZM96.3424 83.2851C95.9056 83.2851 95.548 83.1075 95.2696 82.7523V84.5235H94.3552V79.7211H95.2696V80.1603C95.5432 79.8099 95.9008 79.6347 96.3424 79.6347C96.7984 79.6347 97.168 79.7979 97.4512 80.1243C97.7392 80.4459 97.8832 80.8899 97.8832 81.4563C97.8832 82.0227 97.7392 82.4691 97.4512 82.7955C97.168 83.1219 96.7984 83.2851 96.3424 83.2851ZM96.0544 82.4715C96.3184 82.4715 96.5296 82.3779 96.688 82.1907C96.8512 82.0035 96.9328 81.7587 96.9328 81.4563C96.9328 81.1587 96.8512 80.9163 96.688 80.7291C96.5296 80.5419 96.3184 80.4483 96.0544 80.4483C95.9056 80.4483 95.7568 80.4867 95.608 80.5635C95.4592 80.6403 95.3464 80.7339 95.2696 80.8443V82.0755C95.3464 82.1859 95.4592 82.2795 95.608 82.3563C95.7616 82.4331 95.9104 82.4715 96.0544 82.4715ZM100.187 83.2851C99.6496 83.2851 99.2056 83.1171 98.8552 82.7811C98.5048 82.4451 98.3296 82.0035 98.3296 81.4563C98.3296 80.9427 98.4976 80.5107 98.8336 80.1603C99.1744 79.8099 99.6064 79.6347 100.13 79.6347C100.648 79.6347 101.068 79.8123 101.39 80.1675C101.711 80.5179 101.872 80.9787 101.872 81.5499V81.7515H99.2872C99.316 81.9819 99.4192 82.1739 99.5968 82.3275C99.7744 82.4811 100.005 82.5579 100.288 82.5579C100.442 82.5579 100.607 82.5267 100.785 82.4643C100.967 82.4019 101.111 82.3179 101.217 82.2123L101.62 82.8027C101.27 83.1243 100.792 83.2851 100.187 83.2851ZM100.986 81.1323C100.972 80.9355 100.893 80.7579 100.749 80.5995C100.61 80.4411 100.403 80.3619 100.13 80.3619C99.8704 80.3619 99.6688 80.4411 99.5248 80.5995C99.3808 80.7531 99.2968 80.9307 99.2728 81.1323H100.986ZM105.794 83.1987H104.88V81.0963C104.88 80.6643 104.666 80.4483 104.239 80.4483C103.908 80.4483 103.644 80.5851 103.447 80.8587V83.1987H102.533V79.7211H103.447V80.1747C103.749 79.8147 104.155 79.6347 104.664 79.6347C105.038 79.6347 105.319 79.7331 105.506 79.9299C105.698 80.1267 105.794 80.3979 105.794 80.7435V83.1987ZM110.014 83.1987H109.092V82.7523C108.809 83.1075 108.452 83.2851 108.02 83.2851C107.568 83.2851 107.199 83.1243 106.911 82.8027C106.623 82.4763 106.479 82.0299 106.479 81.4635C106.479 80.9067 106.623 80.4627 106.911 80.1315C107.199 79.8003 107.568 79.6347 108.02 79.6347C108.461 79.6347 108.819 79.8123 109.092 80.1675V78.3963H110.014V83.1987ZM108.3 82.4715C108.454 82.4715 108.605 82.4355 108.754 82.3635C108.903 82.2867 109.016 82.1907 109.092 82.0755V80.8443C109.016 80.7291 108.903 80.6355 108.754 80.5635C108.605 80.4867 108.454 80.4483 108.3 80.4483C108.041 80.4483 107.83 80.5419 107.667 80.7291C107.504 80.9163 107.422 81.1611 107.422 81.4635C107.422 81.7611 107.504 82.0035 107.667 82.1907C107.83 82.3779 108.041 82.4715 108.3 82.4715Z" fill="#747474"/>
<g clip-path="url(#clip6_11545_172351)">
<path d="M304.492 77.5467C304.492 77.2978 304.693 77.0967 304.942 77.0967H310.342C310.591 77.0967 310.792 77.2978 310.792 77.5467C310.792 77.7956 310.591 77.9967 310.342 77.9967H304.942C304.693 77.9967 304.492 77.7956 304.492 77.5467ZM304.492 79.7967C304.492 79.5478 304.693 79.3467 304.942 79.3467H310.342C310.591 79.3467 310.792 79.5478 310.792 79.7967C310.792 80.0456 310.591 80.2467 310.342 80.2467H304.942C304.693 80.2467 304.492 80.0456 304.492 79.7967ZM310.792 82.0467C310.792 82.2956 310.591 82.4967 310.342 82.4967H304.942C304.693 82.4967 304.492 82.2956 304.492 82.0467C304.492 81.7978 304.693 81.5967 304.942 81.5967H310.342C310.591 81.5967 310.792 81.7978 310.792 82.0467Z" fill="#747474"/>
</g>
<g clip-path="url(#clip7_11545_172351)">
<rect x="45.5938" y="78.5996" width="300" height="156.571" fill="white"/>
<g clip-path="url(#clip8_11545_172351)">
<g clip-path="url(#clip9_11545_172351)">
<g clip-path="url(#clip10_11545_172351)">
<g clip-path="url(#clip11_11545_172351)">
</g>
<g clip-path="url(#clip12_11545_172351)">
<rect x="310.405" y="92.671" width="0.142857" height="124.429" stroke="#E9EBF1" stroke-width="0.142857"/>
</g>
<g clip-path="url(#clip13_11545_172351)">
<rect x="291.241" y="92.671" width="0.142857" height="124.429" stroke="#E9EBF1" stroke-width="0.142857"/>
</g>
<g clip-path="url(#clip14_11545_172351)">
<rect x="272.085" y="92.671" width="0.142857" height="124.429" stroke="#E9EBF1" stroke-width="0.142857"/>
</g>
<g clip-path="url(#clip15_11545_172351)">
<rect x="252.929" y="92.671" width="0.142857" height="124.429" stroke="#E9EBF1" stroke-width="0.142857"/>
</g>
<g clip-path="url(#clip16_11545_172351)">
<rect x="233.773" y="92.671" width="0.142857" height="124.429" stroke="#E9EBF1" stroke-width="0.142857"/>
</g>
<g clip-path="url(#clip17_11545_172351)">
<rect x="214.616" y="92.671" width="0.142857" height="124.429" stroke="#E9EBF1" stroke-width="0.142857"/>
</g>
<g clip-path="url(#clip18_11545_172351)">
<rect x="195.452" y="92.671" width="0.142857" height="124.429" stroke="#E9EBF1" stroke-width="0.142857"/>
</g>
<g clip-path="url(#clip19_11545_172351)">
<rect x="176.3" y="92.671" width="0.142857" height="124.429" stroke="#E9EBF1" stroke-width="0.142857"/>
</g>
<g clip-path="url(#clip20_11545_172351)">
<rect x="157.148" y="92.671" width="0.142857" height="124.429" stroke="#E9EBF1" stroke-width="0.142857"/>
</g>
<g clip-path="url(#clip21_11545_172351)">
<rect x="137.984" y="92.671" width="0.142857" height="124.429" stroke="#E9EBF1" stroke-width="0.142857"/>
</g>
<g clip-path="url(#clip22_11545_172351)">
<rect x="118.827" y="92.671" width="0.142857" height="124.429" stroke="#E9EBF1" stroke-width="0.142857"/>
</g>
<g clip-path="url(#clip23_11545_172351)">
<rect x="99.671" y="92.671" width="0.142857" height="124.429" stroke="#E9EBF1" stroke-width="0.142857"/>
</g>
<g clip-path="url(#clip24_11545_172351)">
<rect x="61.6574" y="92.671" width="0.142857" height="124.429" stroke="#E9EBF1" stroke-width="0.142857"/>
<rect x="80.5148" y="92.671" width="0.142857" height="124.429" stroke="#E9EBF1" stroke-width="0.142857"/>
</g>
</g>
<g clip-path="url(#clip25_11545_172351)">
<rect x="61.6535" y="186.958" width="268.429" height="0.142857" stroke="#E9EBF1" stroke-width="0.142857"/>
<rect x="61.6535" y="154.786" width="267.571" height="0.142857" stroke="#E9EBF1" stroke-width="0.142857"/>
<rect x="61.6535" y="123.587" width="267.571" height="0.142857" stroke="#E9EBF1" stroke-width="0.142857"/>
<rect x="61.6535" y="92.3878" width="267.571" height="0.142857" stroke="#E9EBF1" stroke-width="0.142857"/>
</g>
</g>
<rect x="61.6016" y="92.3145" width="248.771" height="124.571" fill="white" fill-opacity="0.01"/>
<g clip-path="url(#clip26_11545_172351)">
<path d="M61.7891 182.148C61.7891 182.148 71.4113 163.883 79.1123 160.153C84.0376 157.766 85.0025 161.418 96.7617 154.023C108.521 146.628 107.34 138.025 114.563 138.025C121.785 138.025 131.104 140.042 132.97 143.985C136.054 150.499 142.947 155.172 150.646 155.172C158.345 155.172 166.159 158.393 168.339 158.393C175.042 158.393 182.702 151.842 185.797 144.648C188.678 137.95 192.76 131.484 198.093 131.484C200.813 131.484 202.076 132.387 203.768 133.728C208.96 137.84 210.748 146.787 221.007 145.501C231.266 144.214 233.045 132.95 239.165 129.222C241.217 127.972 243.869 127.181 246.103 127.181C251.62 127.181 251.332 131.484 256.381 131.12C261.098 130.779 270.004 124.278 274.325 121.803C278.646 119.328 281.434 108.921 292.37 108.921C301.081 108.921 309.172 101.396 309.989 101.396" stroke="#FF6C40" stroke-width="1.14286" stroke-linecap="round"/>
<path d="M61.7891 182.118C61.7891 182.118 70.5841 167.352 79.039 167.352C85.9242 167.352 87.8278 172.924 96.6324 172.924C103.766 172.924 112.389 168.806 115.162 163.948C119.054 157.128 124.756 146.685 132.413 146.685C140.76 146.685 136.51 150.576 150.017 150.576C159.911 150.576 152.207 164.581 168.083 164.581C171.19 164.581 182.874 160.391 185.625 158.274C192.329 153.114 197.699 147.676 203.61 140.101C208.019 134.45 212.379 130.201 221.301 130.201C230.224 130.201 234.793 138.4 238.967 145.161C243.286 152.156 252.164 158.274 257.059 157.722C266.498 156.657 265.644 147.514 274.387 147.514C281.385 147.514 279.949 149.983 291.948 149.336C303.948 148.689 301.395 129.519 309.989 129.111" stroke="#826AF9" stroke-width="1.14286" stroke-linecap="round"/>
</g>
<g clip-path="url(#clip27_11545_172351)">
<rect x="262.789" y="92.3984" width="0" height="94.2" stroke="#DADADA"/>
<g clip-path="url(#clip28_11545_172351)" filter="url(#filter4_d_11545_172351)">
<circle cx="263.445" cy="161.022" r="2.85714" fill="white"/>
<circle cx="263.445" cy="161.022" r="0.857143" fill="#FFE700"/>
<mask id="mask0_11545_172351" style="mask-type:luminance" maskUnits="userSpaceOnUse" x="262" y="160" width="3" height="2">
<circle cx="263.445" cy="161.022" r="0.857143" fill="white"/>
</mask>
<g mask="url(#mask0_11545_172351)">
</g>
</g>
<g clip-path="url(#clip29_11545_172351)">
<g clip-path="url(#clip30_11545_172351)" filter="url(#filter5_d_11545_172351)">
<path fill-rule="evenodd" clip-rule="evenodd" d="M270.728 155.748C270.096 155.748 269.585 156.26 269.585 156.891V158.037L268.121 159.318C267.861 159.546 267.861 159.95 268.121 160.178L269.585 161.459V164.891C269.585 165.522 270.096 166.034 270.728 166.034H285.013C285.645 166.034 286.156 165.522 286.156 164.891V156.891C286.156 156.26 285.645 155.748 285.013 155.748H270.728Z" fill="white"/>
</g>
<path d="M275.942 161.389H275.12V161.019H275.942V161.389ZM277.094 162.075C276.717 162.075 276.423 161.961 276.213 161.732L276.484 161.393C276.644 161.559 276.846 161.643 277.09 161.643C277.221 161.643 277.324 161.611 277.399 161.547C277.477 161.481 277.516 161.399 277.516 161.303C277.516 161.201 277.479 161.118 277.406 161.057C277.333 160.995 277.232 160.964 277.104 160.964C276.914 160.964 276.754 161.026 276.624 161.149L276.285 161.06V159.747H277.855V160.175H276.772V160.734C276.9 160.606 277.068 160.542 277.276 160.542C277.479 160.542 277.652 160.61 277.793 160.745C277.937 160.879 278.009 161.059 278.009 161.283C278.009 161.525 277.926 161.718 277.759 161.862C277.592 162.004 277.37 162.075 277.094 162.075ZM278.799 160.851C278.628 160.851 278.488 160.798 278.381 160.693C278.273 160.586 278.22 160.451 278.22 160.289C278.22 160.124 278.273 159.987 278.381 159.877C278.488 159.767 278.628 159.713 278.799 159.713C278.973 159.713 279.113 159.767 279.221 159.877C279.328 159.987 279.382 160.124 279.382 160.289C279.382 160.451 279.328 160.586 279.221 160.693C279.113 160.798 278.973 160.851 278.799 160.851ZM278.833 162.034H278.576L280.037 159.747H280.297L278.833 162.034ZM280.476 161.914C280.368 162.021 280.229 162.075 280.057 162.075C279.886 162.075 279.747 162.021 279.639 161.914C279.532 161.806 279.478 161.671 279.478 161.509C279.478 161.345 279.532 161.207 279.639 161.098C279.747 160.988 279.886 160.933 280.057 160.933C280.229 160.933 280.368 160.988 280.476 161.098C280.585 161.207 280.64 161.345 280.64 161.509C280.64 161.671 280.585 161.806 280.476 161.914ZM278.799 160.583C278.879 160.583 278.944 160.557 278.995 160.505C279.045 160.45 279.07 160.378 279.07 160.289C279.07 160.195 279.045 160.121 278.995 160.066C278.944 160.011 278.879 159.983 278.799 159.983C278.719 159.983 278.654 160.011 278.604 160.066C278.553 160.121 278.528 160.195 278.528 160.289C278.528 160.375 278.553 160.446 278.604 160.501C278.656 160.556 278.721 160.583 278.799 160.583ZM279.862 161.729C279.912 161.781 279.977 161.807 280.057 161.807C280.137 161.807 280.203 161.781 280.253 161.729C280.305 161.674 280.332 161.601 280.332 161.509C280.332 161.415 280.305 161.341 280.253 161.286C280.203 161.231 280.137 161.204 280.057 161.204C279.977 161.204 279.912 161.231 279.862 161.286C279.812 161.341 279.787 161.415 279.787 161.509C279.787 161.601 279.812 161.674 279.862 161.729Z" fill="#505D6F"/>
</g>
<g clip-path="url(#clip31_11545_172351)" filter="url(#filter6_d_11545_172351)">
<circle cx="263.156" cy="130.887" r="2.85714" fill="white"/>
<circle cx="263.156" cy="130.887" r="0.857143" fill="#FFE700"/>
<mask id="mask1_11545_172351" style="mask-type:luminance" maskUnits="userSpaceOnUse" x="262" y="130" width="3" height="2">
<circle cx="263.156" cy="130.887" r="0.857143" fill="white"/>
</mask>
<g mask="url(#mask1_11545_172351)">
</g>
</g>
<g clip-path="url(#clip32_11545_172351)">
<g clip-path="url(#clip33_11545_172351)" filter="url(#filter7_d_11545_172351)">
<path fill-rule="evenodd" clip-rule="evenodd" d="M270.446 125.613C269.815 125.613 269.304 126.125 269.304 126.756V127.902L267.84 129.183C267.579 129.411 267.579 129.816 267.84 130.043L269.304 131.324V134.756C269.304 135.387 269.815 135.899 270.446 135.899H284.732C285.363 135.899 285.875 135.387 285.875 134.756V126.756C285.875 126.125 285.363 125.613 284.732 125.613H270.446Z" fill="white"/>
</g>
<path d="M275.324 130.877H274.711V131.573H274.412V130.877H273.795V130.606H274.412V129.938H274.711V130.606H275.324V130.877ZM276.606 131.899H276.12V130.239L275.739 130.627L275.461 130.335L276.181 129.612H276.606V131.899ZM278.715 131.899H276.994V131.518C277.483 131.155 277.807 130.897 277.965 130.743C278.125 130.588 278.205 130.443 278.205 130.308C278.205 130.214 278.168 130.141 278.095 130.089C278.022 130.036 277.935 130.01 277.834 130.01C277.594 130.01 277.39 130.098 277.221 130.274L276.943 129.951C277.05 129.828 277.182 129.735 277.337 129.674C277.495 129.61 277.657 129.578 277.824 129.578C278.075 129.578 278.283 129.644 278.448 129.777C278.615 129.909 278.698 130.086 278.698 130.308C278.698 130.495 278.624 130.679 278.475 130.86C278.329 131.038 278.098 131.242 277.783 131.47H278.715V131.899ZM279.558 130.716C279.386 130.716 279.247 130.663 279.139 130.558C279.032 130.451 278.978 130.316 278.978 130.154C278.978 129.989 279.032 129.852 279.139 129.742C279.247 129.633 279.386 129.578 279.558 129.578C279.731 129.578 279.872 129.633 279.979 129.742C280.087 129.852 280.14 129.989 280.14 130.154C280.14 130.316 280.087 130.451 279.979 130.558C279.872 130.663 279.731 130.716 279.558 130.716ZM279.592 131.899H279.335L280.795 129.612H281.056L279.592 131.899ZM281.234 131.779C281.127 131.886 280.987 131.94 280.816 131.94C280.644 131.94 280.505 131.886 280.398 131.779C280.29 131.671 280.236 131.537 280.236 131.374C280.236 131.21 280.29 131.073 280.398 130.963C280.505 130.853 280.644 130.798 280.816 130.798C280.987 130.798 281.127 130.853 281.234 130.963C281.344 131.073 281.399 131.21 281.399 131.374C281.399 131.537 281.344 131.671 281.234 131.779ZM279.558 130.449C279.638 130.449 279.703 130.422 279.753 130.37C279.803 130.315 279.828 130.243 279.828 130.154C279.828 130.06 279.803 129.986 279.753 129.931C279.703 129.876 279.638 129.849 279.558 129.849C279.478 129.849 279.412 129.876 279.362 129.931C279.312 129.986 279.287 130.06 279.287 130.154C279.287 130.241 279.312 130.311 279.362 130.366C279.415 130.421 279.48 130.449 279.558 130.449ZM280.62 131.594C280.671 131.646 280.736 131.673 280.816 131.673C280.896 131.673 280.961 131.646 281.011 131.594C281.064 131.539 281.09 131.466 281.09 131.374C281.09 131.281 281.064 131.206 281.011 131.151C280.961 131.097 280.896 131.069 280.816 131.069C280.736 131.069 280.671 131.097 280.62 131.151C280.57 131.206 280.545 131.281 280.545 131.374C280.545 131.466 280.57 131.539 280.62 131.594Z" fill="#505D6F"/>
</g>
</g>
</g>
</g>
<rect x="55.0477" y="68.2488" width="262.5" height="126.9" rx="3.15" stroke="#A2A3A4" stroke-width="0.9"/>
</g>
<g filter="url(#filter8_d_11545_172351)">
<rect x="183.598" y="177" width="245.28" height="120.71" rx="6" fill="white"/>
<rect x="190.797" y="185.4" width="45.6" height="7.2" rx="3.6" fill="#DEDEDE"/>
<g clip-path="url(#clip34_11545_172351)">
<path d="M415.375 186.752C415.375 186.503 415.576 186.302 415.825 186.302H421.225C421.474 186.302 421.675 186.503 421.675 186.752C421.675 187.001 421.474 187.202 421.225 187.202H415.825C415.576 187.202 415.375 187.001 415.375 186.752ZM415.375 189.002C415.375 188.753 415.576 188.552 415.825 188.552H421.225C421.474 188.552 421.675 188.753 421.675 189.002C421.675 189.251 421.474 189.452 421.225 189.452H415.825C415.576 189.452 415.375 189.251 415.375 189.002ZM421.675 191.252C421.675 191.501 421.474 191.702 421.225 191.702H415.825C415.576 191.702 415.375 191.501 415.375 191.252C415.375 191.003 415.576 190.802 415.825 190.802H421.225C421.474 190.802 421.675 191.003 421.675 191.252Z" fill="#747474"/>
</g>
<mask id="path-85-inside-2_11545_172351" fill="white">
<path d="M190.797 199.8H248.517V223.992H190.797V199.8Z"/>
</mask>
<path d="M190.797 199.8H248.517V223.992H190.797V199.8Z" fill="#F9FAFB"/>
<path d="M190.797 199.195H249.122L247.912 200.405H190.797V199.195ZM249.122 224.597H190.797V223.387H247.912L249.122 224.597ZM190.797 223.992V199.8V223.992ZM249.122 199.195V224.597L247.912 223.387V200.405L249.122 199.195Z" fill="#EAECF0" mask="url(#path-85-inside-2_11545_172351)"/>
<mask id="path-87-inside-3_11545_172351" fill="white">
<path d="M248.518 199.8H306.238V223.992H248.518V199.8Z"/>
</mask>
<path d="M248.518 199.8H306.238V223.992H248.518V199.8Z" fill="#F9FAFB"/>
<path d="M248.518 199.195H306.842L305.633 200.405H248.518V199.195ZM306.842 224.597H248.518V223.387H305.633L306.842 224.597ZM248.518 223.992V199.8V223.992ZM306.842 199.195V224.597L305.633 223.387V200.405L306.842 199.195Z" fill="#EAECF0" mask="url(#path-87-inside-3_11545_172351)"/>
<mask id="path-89-inside-4_11545_172351" fill="white">
<path d="M306.236 199.8H363.956V223.992H306.236V199.8Z"/>
</mask>
<path d="M306.236 199.8H363.956V223.992H306.236V199.8Z" fill="#F9FAFB"/>
<path d="M306.236 199.195H364.561L363.352 200.405H306.236V199.195ZM364.561 224.597H306.236V223.387H363.352L364.561 224.597ZM306.236 223.992V199.8V223.992ZM364.561 199.195V224.597L363.352 223.387V200.405L364.561 199.195Z" fill="#EAECF0" mask="url(#path-89-inside-4_11545_172351)"/>
<mask id="path-91-inside-5_11545_172351" fill="white">
<path d="M363.957 199.8H421.677V223.992H363.957V199.8Z"/>
</mask>
<path d="M363.957 199.8H421.677V223.992H363.957V199.8Z" fill="#F9FAFB"/>
<path d="M363.957 199.195H422.282L421.072 200.405H363.957V199.195ZM422.282 224.597H363.957V223.387H421.072L422.282 224.597ZM363.957 223.992V199.8V223.992ZM422.282 199.195V224.597L421.072 223.387V200.405L422.282 199.195Z" fill="#EAECF0" mask="url(#path-91-inside-5_11545_172351)"/>
<rect x="184.048" y="177.45" width="244.38" height="119.81" rx="5.55" stroke="#A2A3A4" stroke-width="0.9"/>
</g>
</g>
<defs>
<filter id="filter0_d_11545_172351" x="5.04" y="6.83883" width="418.92" height="263.52" filterUnits="userSpaceOnUse" color-interpolation-filters="sRGB">
<feFlood flood-opacity="0" result="BackgroundImageFix"/>
<feColorMatrix in="SourceAlpha" type="matrix" values="0 0 0 0 0 0 0 0 0 0 0 0 0 0 0 0 0 0 127 0" result="hardAlpha"/>
<feMorphology radius="2.16" operator="dilate" in="SourceAlpha" result="effect1_dropShadow_11545_172351"/>
<feOffset/>
<feGaussianBlur stdDeviation="2.4"/>
<feComposite in2="hardAlpha" operator="out"/>
<feColorMatrix type="matrix" values="0 0 0 0 0.379167 0 0 0 0 0.368108 0 0 0 0 0.368108 0 0 0 0.12 0"/>
<feBlend mode="normal" in2="BackgroundImageFix" result="effect1_dropShadow_11545_172351"/>
<feBlend mode="normal" in="SourceGraphic" in2="effect1_dropShadow_11545_172351" result="shape"/>
</filter>
<filter id="filter1_d_11545_172351" x="301.2" y="35.9988" width="122.401" height="133.488" filterUnits="userSpaceOnUse" color-interpolation-filters="sRGB">
<feFlood flood-opacity="0" result="BackgroundImageFix"/>
<feColorMatrix in="SourceAlpha" type="matrix" values="0 0 0 0 0 0 0 0 0 0 0 0 0 0 0 0 0 0 127 0" result="hardAlpha"/>
<feMorphology radius="1.2" operator="dilate" in="SourceAlpha" result="effect1_dropShadow_11545_172351"/>
<feOffset/>
<feGaussianBlur stdDeviation="4.8"/>
<feComposite in2="hardAlpha" operator="out"/>
<feColorMatrix type="matrix" values="0 0 0 0 0.266667 0 0 0 0 0.263333 0 0 0 0 0.263333 0 0 0 0.2 0"/>
<feBlend mode="normal" in2="BackgroundImageFix" result="effect1_dropShadow_11545_172351"/>
<feBlend mode="normal" in="SourceGraphic" in2="effect1_dropShadow_11545_172351" result="shape"/>
</filter>
<filter id="filter2_d_11545_172351" x="45.0047" y="190.2" width="216" height="122.067" filterUnits="userSpaceOnUse" color-interpolation-filters="sRGB">
<feFlood flood-opacity="0" result="BackgroundImageFix"/>
<feColorMatrix in="SourceAlpha" type="matrix" values="0 0 0 0 0 0 0 0 0 0 0 0 0 0 0 0 0 0 127 0" result="hardAlpha"/>
<feMorphology radius="1.2" operator="dilate" in="SourceAlpha" result="effect1_dropShadow_11545_172351"/>
<feOffset/>
<feGaussianBlur stdDeviation="4.8"/>
<feComposite in2="hardAlpha" operator="out"/>
<feColorMatrix type="matrix" values="0 0 0 0 0.266667 0 0 0 0 0.263333 0 0 0 0 0.263333 0 0 0 0.2 0"/>
<feBlend mode="normal" in2="BackgroundImageFix" result="effect1_dropShadow_11545_172351"/>
<feBlend mode="normal" in="SourceGraphic" in2="effect1_dropShadow_11545_172351" result="shape"/>
</filter>
<filter id="filter3_d_11545_172351" x="43.7977" y="56.9988" width="285" height="149.4" filterUnits="userSpaceOnUse" color-interpolation-filters="sRGB">
<feFlood flood-opacity="0" result="BackgroundImageFix"/>
<feColorMatrix in="SourceAlpha" type="matrix" values="0 0 0 0 0 0 0 0 0 0 0 0 0 0 0 0 0 0 127 0" result="hardAlpha"/>
<feMorphology radius="1.2" operator="dilate" in="SourceAlpha" result="effect1_dropShadow_11545_172351"/>
<feOffset/>
<feGaussianBlur stdDeviation="4.8"/>
<feComposite in2="hardAlpha" operator="out"/>
<feColorMatrix type="matrix" values="0 0 0 0 0.266667 0 0 0 0 0.263333 0 0 0 0 0.263333 0 0 0 0.2 0"/>
<feBlend mode="normal" in2="BackgroundImageFix" result="effect1_dropShadow_11545_172351"/>
<feBlend mode="normal" in="SourceGraphic" in2="effect1_dropShadow_11545_172351" result="shape"/>
</filter>
<filter id="filter4_d_11545_172351" x="258.302" y="156.736" width="10.2863" height="10.2858" filterUnits="userSpaceOnUse" color-interpolation-filters="sRGB">
<feFlood flood-opacity="0" result="BackgroundImageFix"/>
<feColorMatrix in="SourceAlpha" type="matrix" values="0 0 0 0 0 0 0 0 0 0 0 0 0 0 0 0 0 0 127 0" result="hardAlpha"/>
<feOffset dy="0.857143"/>
<feGaussianBlur stdDeviation="1.14286"/>
<feColorMatrix type="matrix" values="0 0 0 0 0.439216 0 0 0 0 0.470588 0 0 0 0 0.529412 0 0 0 0.24 0"/>
<feBlend mode="normal" in2="BackgroundImageFix" result="effect1_dropShadow_11545_172351"/>
<feBlend mode="normal" in="SourceGraphic" in2="effect1_dropShadow_11545_172351" result="shape"/>
</filter>
<filter id="filter5_d_11545_172351" x="261.014" y="151.748" width="31.9994" height="23.9999" filterUnits="userSpaceOnUse" color-interpolation-filters="sRGB">
<feFlood flood-opacity="0" result="BackgroundImageFix"/>
<feColorMatrix in="SourceAlpha" type="matrix" values="0 0 0 0 0 0 0 0 0 0 0 0 0 0 0 0 0 0 127 0" result="hardAlpha"/>
<feOffset dy="2.85714"/>
<feGaussianBlur stdDeviation="3.42857"/>
<feColorMatrix type="matrix" values="0 0 0 0 0.113725 0 0 0 0 0.164706 0 0 0 0 0.266667 0 0 0 0.12 0"/>
<feBlend mode="normal" in2="BackgroundImageFix" result="effect1_dropShadow_11545_172351"/>
<feBlend mode="normal" in="SourceGraphic" in2="effect1_dropShadow_11545_172351" result="shape"/>
</filter>
<filter id="filter6_d_11545_172351" x="258.013" y="126.601" width="10.2863" height="10.2858" filterUnits="userSpaceOnUse" color-interpolation-filters="sRGB">
<feFlood flood-opacity="0" result="BackgroundImageFix"/>
<feColorMatrix in="SourceAlpha" type="matrix" values="0 0 0 0 0 0 0 0 0 0 0 0 0 0 0 0 0 0 127 0" result="hardAlpha"/>
<feOffset dy="0.857143"/>
<feGaussianBlur stdDeviation="1.14286"/>
<feColorMatrix type="matrix" values="0 0 0 0 0.439216 0 0 0 0 0.470588 0 0 0 0 0.529412 0 0 0 0.24 0"/>
<feBlend mode="normal" in2="BackgroundImageFix" result="effect1_dropShadow_11545_172351"/>
<feBlend mode="normal" in="SourceGraphic" in2="effect1_dropShadow_11545_172351" result="shape"/>
</filter>
<filter id="filter7_d_11545_172351" x="260.733" y="121.613" width="31.9994" height="23.9999" filterUnits="userSpaceOnUse" color-interpolation-filters="sRGB">
<feFlood flood-opacity="0" result="BackgroundImageFix"/>
<feColorMatrix in="SourceAlpha" type="matrix" values="0 0 0 0 0 0 0 0 0 0 0 0 0 0 0 0 0 0 127 0" result="hardAlpha"/>
<feOffset dy="2.85714"/>
<feGaussianBlur stdDeviation="3.42857"/>
<feColorMatrix type="matrix" values="0 0 0 0 0.113725 0 0 0 0 0.164706 0 0 0 0 0.266667 0 0 0 0.12 0"/>
<feBlend mode="normal" in2="BackgroundImageFix" result="effect1_dropShadow_11545_172351"/>
<feBlend mode="normal" in="SourceGraphic" in2="effect1_dropShadow_11545_172351" result="shape"/>
</filter>
<filter id="filter8_d_11545_172351" x="167.998" y="161.4" width="276.479" height="151.91" filterUnits="userSpaceOnUse" color-interpolation-filters="sRGB">
<feFlood flood-opacity="0" result="BackgroundImageFix"/>
<feColorMatrix in="SourceAlpha" type="matrix" values="0 0 0 0 0 0 0 0 0 0 0 0 0 0 0 0 0 0 127 0" result="hardAlpha"/>
<feMorphology radius="3.6" operator="dilate" in="SourceAlpha" result="effect1_dropShadow_11545_172351"/>
<feOffset/>
<feGaussianBlur stdDeviation="6"/>
<feComposite in2="hardAlpha" operator="out"/>
<feColorMatrix type="matrix" values="0 0 0 0 0.266667 0 0 0 0 0.263333 0 0 0 0 0.263333 0 0 0 0.2 0"/>
<feBlend mode="normal" in2="BackgroundImageFix" result="effect1_dropShadow_11545_172351"/>
<feBlend mode="normal" in="SourceGraphic" in2="effect1_dropShadow_11545_172351" result="shape"/>
</filter>
<clipPath id="clip0_11545_172351">
<rect width="498" height="277" fill="white"/>
</clipPath>
<clipPath id="clip1_11545_172351">
<rect x="12" y="13.7988" width="405" height="249.6" rx="4.8" fill="white"/>
</clipPath>
<clipPath id="clip2_11545_172351">
<rect width="12" height="12" fill="white" transform="translate(24 154.368)"/>
</clipPath>
<clipPath id="clip3_11545_172351">
<rect width="12" height="12" fill="white" transform="translate(24 179.568)"/>
</clipPath>
<clipPath id="clip4_11545_172351">
<rect width="6.3" height="7.2" fill="white" transform="translate(399.299 55.1987)"/>
</clipPath>
<clipPath id="clip5_11545_172351">
<rect width="78.624" height="78.288" fill="white" transform="translate(323.379 71.6855)"/>
</clipPath>
<clipPath id="clip6_11545_172351">
<rect width="6.3" height="7.2" fill="white" transform="translate(304.496 76.1987)"/>
</clipPath>
<clipPath id="clip7_11545_172351">
<rect width="249" height="94.8" fill="white" transform="translate(61.7969 92.3989)"/>
</clipPath>
<clipPath id="clip8_11545_172351">
<rect width="267.6" height="94.8" fill="white" transform="translate(61.7891 92.4004)"/>
</clipPath>
<clipPath id="clip9_11545_172351">
<rect width="249" height="94.8" fill="white" transform="translate(61.7891 92.3984)"/>
</clipPath>
<clipPath id="clip10_11545_172351">
<rect width="268.2" height="131.371" fill="white" transform="translate(61.5859 92.5996)"/>
</clipPath>
<clipPath id="clip11_11545_172351">
<rect width="19.1571" height="131.371" fill="white" transform="translate(310.629 92.5996)"/>
</clipPath>
<clipPath id="clip12_11545_172351">
<rect width="19.1571" height="131.371" fill="white" transform="translate(291.477 92.5996)"/>
</clipPath>
<clipPath id="clip13_11545_172351">
<rect width="19.1572" height="131.371" fill="white" transform="translate(272.312 92.5996)"/>
</clipPath>
<clipPath id="clip14_11545_172351">
<rect width="19.1571" height="131.371" fill="white" transform="translate(253.156 92.5996)"/>
</clipPath>
<clipPath id="clip15_11545_172351">
<rect width="19.1571" height="131.371" fill="white" transform="translate(234 92.5996)"/>
</clipPath>
<clipPath id="clip16_11545_172351">
<rect width="19.1571" height="131.371" fill="white" transform="translate(214.844 92.5996)"/>
</clipPath>
<clipPath id="clip17_11545_172351">
<rect width="19.1571" height="131.371" fill="white" transform="translate(195.688 92.5996)"/>
</clipPath>
<clipPath id="clip18_11545_172351">
<rect width="19.1571" height="131.371" fill="white" transform="translate(176.523 92.5996)"/>
</clipPath>
<clipPath id="clip19_11545_172351">
<rect width="19.1571" height="131.371" fill="white" transform="translate(157.371 92.5996)"/>
</clipPath>
<clipPath id="clip20_11545_172351">
<rect width="19.1571" height="131.371" fill="white" transform="translate(138.219 92.5996)"/>
</clipPath>
<clipPath id="clip21_11545_172351">
<rect width="19.1571" height="131.371" fill="white" transform="translate(119.055 92.5996)"/>
</clipPath>
<clipPath id="clip22_11545_172351">
<rect width="19.1571" height="131.371" fill="white" transform="translate(99.8984 92.5996)"/>
</clipPath>
<clipPath id="clip23_11545_172351">
<rect width="19.1571" height="131.371" fill="white" transform="translate(80.7422 92.5996)"/>
</clipPath>
<clipPath id="clip24_11545_172351">
<rect width="19.1571" height="131.371" fill="white" transform="translate(61.5859 92.5996)"/>
</clipPath>
<clipPath id="clip25_11545_172351">
<rect width="278.486" height="124.8" fill="white" transform="translate(51.2969 92.3145)"/>
</clipPath>
<clipPath id="clip26_11545_172351">
<rect width="248.4" height="81" fill="white" transform="translate(61.7891 101.398)"/>
</clipPath>
<clipPath id="clip27_11545_172351">
<rect width="25.8" height="93.6" fill="white" transform="translate(260.383 92.3984)"/>
</clipPath>
<clipPath id="clip28_11545_172351">
<rect width="5.71429" height="5.71429" fill="white" transform="translate(260.588 158.165)"/>
</clipPath>
<clipPath id="clip29_11545_172351">
<rect width="16.5714" height="10.2857" fill="white" transform="translate(269.586 155.748)"/>
</clipPath>
<clipPath id="clip30_11545_172351">
<rect width="18.2857" height="10.2857" fill="white" transform="translate(267.871 155.748)"/>
</clipPath>
<clipPath id="clip31_11545_172351">
<rect width="5.71429" height="5.71429" fill="white" transform="translate(260.299 128.03)"/>
</clipPath>
<clipPath id="clip32_11545_172351">
<rect width="16.5714" height="10.2857" fill="white" transform="translate(269.305 125.613)"/>
</clipPath>
<clipPath id="clip33_11545_172351">
<rect width="18.2857" height="10.2857" fill="white" transform="translate(267.59 125.613)"/>
</clipPath>
<clipPath id="clip34_11545_172351">
<rect width="6.3" height="7.2" fill="white" transform="translate(415.377 185.4)"/>
</clipPath>
</defs>
</svg>
